<svg width="202" height="211" viewBox="0 0 202 211" fill="none" xmlns="http://www.w3.org/2000/svg">
<path d="M131.913 26.1051C131.913 26.1051 99.1584 13.9036 67.3871 32.2692C35.6117 50.6388 19.924 87.7005 6.42849 117.374C-7.07115 147.051 1.28908 177.512 25.8962 191.669C50.4993 205.821 66.8605 185.623 101.126 185.064C135.391 184.504 144.67 189.603 172.866 170.27C201.065 150.937 205.629 104.499 182.765 69.8045C159.901 35.1103 131.913 26.1092 131.913 26.1092V26.1051Z" fill="#0021C5"/>
<path opacity="0.7" d="M131.913 26.1051C131.913 26.1051 99.1584 13.9036 67.3871 32.2692C35.6117 50.6388 19.924 87.7005 6.42849 117.374C-7.07115 147.051 1.28908 177.512 25.8962 191.669C50.4993 205.821 66.8605 185.623 101.126 185.064C135.391 184.504 144.67 189.603 172.866 170.27C201.065 150.937 205.629 104.499 182.765 69.8045C159.901 35.1103 131.913 26.1092 131.913 26.1092V26.1051Z" fill="white"/>
<path d="M57.2079 131.148L34.9336 143.266" stroke="black" stroke-linecap="round" stroke-linejoin="round"/>
<path d="M15 65.0975L38.8382 74.4764" stroke="black" stroke-linecap="round" stroke-linejoin="round"/>
<path d="M43.5298 11.9427L58.771 36.5675" stroke="black" stroke-linecap="round" stroke-linejoin="round"/>
<path d="M95.5095 1L94.7275 20.5397" stroke="black" stroke-linecap="round" stroke-linejoin="round"/>
<path d="M140.067 47.5103L160 27.5773" stroke="black" stroke-linecap="round" stroke-linejoin="round"/>
<path d="M167.815 87.765L185.013 81.9026" stroke="black" stroke-linecap="round" stroke-linejoin="round"/>
<path d="M151.398 131.541L165.862 139.749" stroke="black" stroke-linecap="round" stroke-linejoin="round"/>
<path d="M38.4497 47.1171L50.1745 56.1073" stroke="black" stroke-linecap="round" stroke-linejoin="round"/>
<path d="M164.688 63.9269L152.181 69.7893" stroke="black" stroke-linecap="round" stroke-linejoin="round"/>
<path d="M42.7477 106.527L29.459 110.433" stroke="black" stroke-linecap="round" stroke-linejoin="round"/>
<path d="M156.873 111.608L163.129 113.172" stroke="black" stroke-linecap="round" stroke-linejoin="round"/>
<path d="M152.867 77.1931C151.296 76.1032 145.364 77.0707 141.613 80.0955C137.861 83.1204 137.016 84.2103 137.016 84.2103C137.016 84.2103 135.322 72.3517 135.322 71.9884C135.322 71.6251 132.901 49.3611 132.42 46.0954C131.934 42.8297 131.211 37.9883 130.485 36.8983C129.758 35.8084 126.856 35.69 125.888 36.1717L124.921 36.6575C124.921 36.6575 125.407 28.187 124.435 26.1296C123.468 24.0722 120.443 25.2846 119.594 26.3705C118.749 27.4604 118.14 29.1545 118.14 29.1545C118.14 29.1545 115.356 28.187 113.785 31.3344C112.213 34.4817 111.001 37.2616 110.76 40.2865C110.519 43.3114 109.188 47.1853 109.188 47.1853C109.188 47.1853 107.617 44.6462 105.923 46.0954C104.228 47.5486 102.293 53.2351 101.808 57.3499C101.322 61.4647 100.84 72.3517 100.84 72.3517C100.84 72.3517 99.8728 77.3115 99.387 81.3039C98.9012 85.2962 99.2646 101.874 101.081 108.769C102.898 115.667 105.314 120.023 105.314 120.023C105.314 120.023 109.547 133.939 110.156 135.874C110.76 137.809 117.414 164.188 117.414 164.188L137.257 139.021C137.257 139.021 132.297 125.35 131.207 122.203C130.117 119.055 129.391 118.088 129.391 118.088C129.391 118.088 135.44 109.495 138.706 106.956C141.972 104.417 143.666 95.9465 144.515 92.195C145.36 88.4435 148.871 83.2429 150.806 81.5488C152.741 79.8547 154.435 78.2831 152.863 77.1931H152.867ZM108.094 71.3883C107.731 71.3883 107.853 66.6694 107.853 60.983C107.853 55.2965 108.821 52.7534 108.821 52.7534C108.335 55.2925 109.307 67.8777 109.307 68.7268C109.307 69.5759 108.462 71.3883 108.098 71.3883H108.094Z" fill="white" stroke="black" stroke-linecap="round" stroke-linejoin="round"/>
<path d="M126.394 120.158C127.909 119.39 128.182 118.574 128.182 118.574" stroke="black" stroke-linecap="round" stroke-linejoin="round"/>
<path d="M114.507 117.366C114.507 117.366 121.161 121.721 124.431 120.876" stroke="black" stroke-linecap="round" stroke-linejoin="round"/>
<path d="M137.016 84.2145C137.016 84.2145 134.477 88.2068 133.869 89.6601C133.265 91.1133 132.901 92.3216 131.812 92.9258C130.722 93.5299 129.272 94.379 129.272 94.379" stroke="black" stroke-linecap="round" stroke-linejoin="round"/>
<path d="M129.705 85.3942C126.627 86.823 122.296 89.3498 119.834 93.0442" stroke="black" stroke-linecap="round" stroke-linejoin="round"/>
<path d="M133.265 83.9695C133.265 83.9695 132.379 84.2471 131.032 84.8105" stroke="black" stroke-linecap="round" stroke-linejoin="round"/>
<path d="M118.504 94.6198C118.504 94.6198 116.324 98.6121 115.356 101.759" stroke="black" stroke-linecap="round" stroke-linejoin="round"/>
<path d="M118.141 29.1586C118.141 29.1586 117.537 34.2409 116.688 41.8623C115.843 49.4836 115.357 53.2351 115.479 58.0765C115.602 62.9179 116.932 67.1511 116.81 67.7553" stroke="black" stroke-linecap="round" stroke-linejoin="round"/>
<path d="M124.917 36.6616C124.917 36.6616 124.554 39.8089 124.917 43.9196C125.28 48.0344 124.554 55.6558 124.554 58.5622C124.554 61.4687 124.676 65.8203 124.795 67.1511C124.913 68.4818 125.64 69.4493 125.64 69.4493" stroke="black" stroke-linecap="round" stroke-linejoin="round"/>
<path d="M127.215 70.176C127.215 70.176 127.819 71.266 131.812 71.3843" stroke="black" stroke-linecap="round" stroke-linejoin="round"/>
<path d="M118.018 67.2736C118.018 67.2736 120.92 67.8777 122.859 67.5144" stroke="black" stroke-linecap="round" stroke-linejoin="round"/>
<path d="M107.49 72.3559C107.49 72.3559 107.49 73.5642 103.979 74.6541" stroke="black" stroke-linecap="round" stroke-linejoin="round"/>
<path d="M114.389 69.0901C114.752 68.8492 116.206 68.3635 116.569 66.6694" stroke="black" stroke-linecap="round" stroke-linejoin="round"/>
<path d="M114.597 87.623C114.597 87.623 122.12 84.8635 126.884 83.8593" stroke="black" stroke-linecap="round" stroke-linejoin="round"/>
<path d="M135.955 210.091H201C196.457 204.095 179.875 182.243 178.793 181.165C177.54 179.912 172.021 179.161 172.021 179.161L155.721 165.62L135.408 132.016L116.1 158.848L112.838 145.806L105.564 172.891C105.564 172.891 131.898 204.993 132.898 206.246C133.094 206.491 134.229 207.928 135.951 210.095L135.955 210.091Z" fill="#3CE300" stroke="black" stroke-linecap="round" stroke-linejoin="round"/>
<path d="M72.1628 116.325C72.1628 116.325 66.7785 102.535 65.4804 99.996C64.1823 97.4569 57.1365 86.431 56.7813 83.4388C56.4262 80.4466 55.324 75.4705 54.1892 73.3886C53.0544 71.3067 56.4344 69.9433 59.2306 72.5803C62.0228 75.2174 63.7128 79.5077 63.6761 80.7446C63.6393 81.9815 69.9462 86.6025 69.9462 86.6025L71.0933 75.9726C71.0933 75.9726 72.318 49.606 72.0608 45.6708C71.8036 41.7357 71.5505 33.3795 74.6734 33.057C77.7962 32.7345 78.282 35.2042 78.282 35.2042C78.282 35.2042 78.3922 28.979 81.8661 29.379C84.5195 29.6852 85.5359 32.1875 85.9237 33.3918C86.3116 34.596 86.7687 36.0901 86.7687 36.0901C86.7687 36.0901 88.9568 34.6042 91.0917 38.1434C92.3164 40.1763 94.9208 46.5689 95.3412 48.1936C95.7617 49.8183 95.8923 50.4061 95.8923 50.4061C95.8923 50.4061 98.8192 50.3122 100.117 53.4024C101.415 56.4926 103.261 64.5548 105.044 71.225C106.828 77.8953 106.755 84.2307 106.755 84.2307C106.755 84.2307 107.453 105.691 106.016 112.516C104.579 119.341 101.877 125.158 101.322 125.713C100.766 126.269 92.7817 149.831 92.7817 149.831L65.0885 139.564C65.0885 139.564 70.8566 125.395 71.7669 122.305C72.6813 119.219 72.1628 116.325 72.1628 116.325Z" fill="white" stroke="black" stroke-linecap="round" stroke-linejoin="round"/>
<path d="M66.3711 96.2078C66.4282 97.559 66.7181 98.3713 66.7181 98.3713" stroke="black" stroke-linecap="round" stroke-linejoin="round"/>
<path d="M69.1018 87.7741C69.1018 87.7741 67.5383 89.5947 66.7259 92.8441C66.5627 93.4973 66.4647 94.1096 66.4116 94.6729" stroke="black" stroke-linecap="round" stroke-linejoin="round"/>
<path d="M78.2817 35.2083C78.2817 35.2083 78.7633 43.7604 79.0817 47.9854C79.4042 52.2104 79.5594 58.7459 79.5879 63.0403C79.6165 67.3307 79.094 72.7273 78.8001 73.8988C78.5062 75.0704 77.853 76.5645 77.853 76.5645" stroke="black" stroke-linecap="round" stroke-linejoin="round"/>
<path d="M86.7657 36.0942C86.7657 36.0942 85.3982 37.6862 85.8513 39.7354C86.3044 41.7847 88.4067 53.231 88.4067 54.8883C88.4067 56.5457 88.5251 70.9475 88.5537 71.9231C88.5863 72.8988 87.9005 76.1808 87.574 77.483" stroke="black" stroke-linecap="round" stroke-linejoin="round"/>
<path d="M95.8887 50.4062C95.8887 50.4062 94.3293 50.5654 94.6844 53.0065C95.0396 55.4476 95.8152 63.3792 95.8111 65.5877C95.8111 67.8002 96.3255 72.9029 96.2234 77.7157C96.1214 82.5286 97.2276 84.1859 97.746 85.4228" stroke="black" stroke-linecap="round" stroke-linejoin="round"/>
<path d="M71.8039 82.5081C71.8039 82.5081 71.2487 85.2717 71.9957 86.7005C72.7428 88.1333 73.7796 91.1541 73.7796 92.8155" stroke="black" stroke-linecap="round" stroke-linejoin="round"/>
<path d="M77.3965 81.1487C77.3965 81.1487 77.1026 83.4224 77.4251 84.8879C77.7475 86.3534 78.7558 87.8475 78.7558 87.8475" stroke="black" stroke-linecap="round" stroke-linejoin="round"/>
<path d="M86.7244 84.7329C86.7244 84.7329 86.3978 87.1373 86.9815 88.6681C87.5653 90.1948 88.247 91.3337 88.247 91.3337" stroke="black" stroke-linecap="round" stroke-linejoin="round"/>
<path d="M74.1674 210.398L99.9135 152.305C99.9135 152.305 88.9284 143.234 81.7031 138.474C74.4777 133.715 65.8113 133.857 65.8113 133.857C65.8113 133.857 54.4997 157.962 53.9078 159.497C53.3118 161.032 45.4251 177.365 45.4251 177.365C45.4251 177.365 41.9593 178.602 40.4204 181.369C39.2161 183.541 30.5253 202.356 26.8228 210.398H74.1674Z" fill="#0021C5" stroke="black" stroke-linecap="round" stroke-linejoin="round"/>
<path d="M92.3867 156.117C93.5277 155.442 93.9057 153.97 93.2309 152.829C92.5561 151.688 91.084 151.31 89.943 151.985C88.802 152.659 88.424 154.131 89.0988 155.273C89.7736 156.414 91.2457 156.792 92.3867 156.117Z" fill="black" stroke="black" stroke-linecap="round" stroke-linejoin="round"/>
<path d="M89.8675 163.612C89.545 164.898 88.2428 165.678 86.9569 165.355C85.6711 165.033 84.8914 163.73 85.2139 162.444C85.5364 161.159 86.8386 160.379 88.1244 160.701C89.4103 161.024 90.19 162.326 89.8675 163.612Z" fill="black" stroke="black" stroke-linecap="round" stroke-linejoin="round"/>
</svg>
