<svg width="348" height="350" viewBox="0 0 348 350" fill="none" xmlns="http://www.w3.org/2000/svg">
<path d="M298.692 62.1711C285.618 49.3811 270.639 38.7568 254.722 31.3143C230.481 19.9812 203.774 14.5155 177.068 14.1926C99.0204 13.2476 93.0743 104.936 69.0771 117.687C45.0722 130.429 1.57491 131.926 0.0785392 182.921C-0.866539 214.998 6.62321 247.974 27.6748 272.963C46.9623 295.85 75.291 307.45 103.202 316.019C134.547 325.643 167.791 335.086 200.758 328.589C234.592 321.926 258.361 295.133 286.146 277.027C303.638 265.631 319.342 253.628 330.147 235.333C331.439 233.152 332.652 230.915 333.802 228.655C348.261 200.231 351.096 167.445 343.126 136.691C335.967 109.094 319.814 82.8053 298.7 62.1554L298.692 62.1711Z" fill="#0021C5"/>
<path opacity="0.7" d="M298.692 62.1711C285.618 49.3811 270.639 38.7568 254.722 31.3143C230.481 19.9812 203.774 14.5155 177.068 14.1926C99.0204 13.2476 93.0743 104.936 69.0771 117.687C45.0722 130.429 1.57491 131.926 0.0785392 182.921C-0.866539 214.998 6.62321 247.974 27.6748 272.963C46.9623 295.85 75.291 307.45 103.202 316.019C134.547 325.643 167.791 335.086 200.758 328.589C234.592 321.926 258.361 295.133 286.146 277.027C303.638 265.631 319.342 253.628 330.147 235.333C331.439 233.152 332.652 230.915 333.802 228.655C348.261 200.231 351.096 167.445 343.126 136.691C335.967 109.094 319.814 82.8053 298.7 62.1554L298.692 62.1711Z" fill="white"/>
<path d="M198.844 67.369H145.384L136.855 106.188H207.374L198.844 67.369Z" fill="black" stroke="black" stroke-linecap="round" stroke-linejoin="round"/>
<path d="M215.895 105.479H128.334L114.354 163.405H229.874L215.895 105.479Z" fill="black" stroke="black" stroke-linecap="round" stroke-linejoin="round"/>
<path d="M198.781 105.582H145.447V112.615H198.781V105.582Z" fill="white" stroke="black" stroke-linecap="round" stroke-linejoin="round"/>
<path d="M200.222 111.961H144.014V119.144H200.222V111.961Z" fill="white" stroke="black" stroke-linecap="round" stroke-linejoin="round"/>
<path d="M201.656 118.71H142.573V126.035H201.656V118.71Z" fill="white" stroke="black" stroke-linecap="round" stroke-linejoin="round"/>
<path d="M203.097 125.649H141.139V133.123H203.097V125.649Z" fill="white" stroke="black" stroke-linecap="round" stroke-linejoin="round"/>
<path d="M204.53 132.768H139.698V140.384H204.53V132.768Z" fill="white" stroke="black" stroke-linecap="round" stroke-linejoin="round"/>
<path d="M205.972 140.069H138.265V147.835H205.972V140.069Z" fill="white" stroke="black" stroke-linecap="round" stroke-linejoin="round"/>
<path d="M207.405 147.74H136.823V155.655H207.405V147.74Z" fill="white" stroke="black" stroke-linecap="round" stroke-linejoin="round"/>
<path d="M208.839 155.23H135.382V163.287H208.839V155.23Z" fill="white" stroke="black" stroke-linecap="round" stroke-linejoin="round"/>
<path d="M184.574 67.4635H159.647V72.1102H184.574V67.4635Z" fill="white" stroke="black" stroke-linecap="round" stroke-linejoin="round"/>
<path d="M185.251 71.6849H158.978V76.426H185.251V71.6849Z" fill="white" stroke="black" stroke-linecap="round" stroke-linejoin="round"/>
<path d="M185.92 76.1425H158.308V80.9782H185.92V76.1425Z" fill="white" stroke="black" stroke-linecap="round" stroke-linejoin="round"/>
<path d="M186.59 80.7183H157.631V85.6563H186.59V80.7183Z" fill="white" stroke="black" stroke-linecap="round" stroke-linejoin="round"/>
<path d="M187.267 85.42H156.962V90.4526H187.267V85.42Z" fill="white" stroke="black" stroke-linecap="round" stroke-linejoin="round"/>
<path d="M187.937 90.2478H156.292V95.3749H187.937V90.2478Z" fill="white" stroke="black" stroke-linecap="round" stroke-linejoin="round"/>
<path d="M188.614 95.3119H155.623V100.541H188.614V95.3119Z" fill="white" stroke="black" stroke-linecap="round" stroke-linejoin="round"/>
<path d="M189.275 100.258H154.945V105.582H189.275V100.258Z" fill="white" stroke="black" stroke-linecap="round" stroke-linejoin="round"/>
<path d="M245.917 163.003H98.3115L74.7476 249.966H269.481L245.917 163.003Z" fill="black" stroke="black" stroke-linecap="round" stroke-linejoin="round"/>
<path d="M300.921 247.241H43.3001L18.4209 345.325H325.808L300.921 247.241Z" fill="black" stroke="black" stroke-linecap="round" stroke-linejoin="round"/>
<path d="M269.064 257.078H75.165L75.8266 247.391H268.402L269.064 257.078Z" fill="white" stroke="black" stroke-linecap="round" stroke-linejoin="round"/>
<path d="M271.529 267.19H72.6921L73.3931 257.18H270.836L271.529 267.19Z" fill="white" stroke="black" stroke-linecap="round" stroke-linejoin="round"/>
<path d="M274.033 277.444H70.1953L70.9199 267.111H273.308L274.033 277.444Z" fill="white" stroke="black" stroke-linecap="round" stroke-linejoin="round"/>
<path d="M276.577 287.848H67.6516L68.4156 277.184H275.805L276.577 287.848Z" fill="white" stroke="black" stroke-linecap="round" stroke-linejoin="round"/>
<path d="M279.152 298.401H65.0762L65.8795 287.399H278.349L279.152 298.401Z" fill="white" stroke="black" stroke-linecap="round" stroke-linejoin="round"/>
<path d="M281.822 309.86H62.4065L63.2571 298.496H280.972L281.822 309.86Z" fill="white" stroke="black" stroke-linecap="round" stroke-linejoin="round"/>
<path d="M284.531 321.493H59.6973L60.5872 309.766H283.641L284.531 321.493Z" fill="white" stroke="black" stroke-linecap="round" stroke-linejoin="round"/>
<path d="M287.28 333.314H56.9487L57.8781 321.201H286.351L287.28 333.314Z" fill="white" stroke="black" stroke-linecap="round" stroke-linejoin="round"/>
<path d="M290.084 345.325H54.145L55.1216 332.826H289.107L290.084 345.325Z" fill="white" stroke="black" stroke-linecap="round" stroke-linejoin="round"/>
<path d="M223.282 162.972H120.954V173.265H223.282V162.972Z" fill="white" stroke="black" stroke-linecap="round" stroke-linejoin="round"/>
<path d="M226.031 172.304H118.19V182.81H226.031V172.304Z" fill="white" stroke="black" stroke-linecap="round" stroke-linejoin="round"/>
<path d="M228.795 182.18H115.433V192.899H228.795V182.18Z" fill="white" stroke="black" stroke-linecap="round" stroke-linejoin="round"/>
<path d="M231.552 192.332H112.677V203.263H231.552V192.332Z" fill="white" stroke="black" stroke-linecap="round" stroke-linejoin="round"/>
<path d="M234.316 202.744H109.92V213.888H234.316V202.744Z" fill="white" stroke="black" stroke-linecap="round" stroke-linejoin="round"/>
<path d="M237.065 213.431H107.156V224.796H237.065V213.431Z" fill="white" stroke="black" stroke-linecap="round" stroke-linejoin="round"/>
<path d="M239.829 224.654H104.399V236.231H239.829V224.654Z" fill="white" stroke="black" stroke-linecap="round" stroke-linejoin="round"/>
<path d="M242.586 235.617H101.643V247.406H242.586V235.617Z" fill="white" stroke="black" stroke-linecap="round" stroke-linejoin="round"/>
<path d="M96.1459 105.991L89.0972 112.182" stroke="black" stroke-linecap="round" stroke-linejoin="round"/>
<path d="M158.875 50.838L100.485 102.172" stroke="black" stroke-linecap="round" stroke-linejoin="round"/>
<path d="M152.74 49.3102L112.874 63.8723" stroke="black" stroke-linecap="round" stroke-linejoin="round"/>
<path d="M116.229 43.3404L90.6328 45.4747" stroke="black" stroke-linecap="round" stroke-linejoin="round"/>
<path d="M145.841 40.8754L119.08 43.1042" stroke="black" stroke-linecap="round" stroke-linejoin="round"/>
<path d="M77.3308 6.93127L70.6995 4.83635" stroke="black" stroke-linecap="round" stroke-linejoin="round"/>
<path d="M134.492 24.9823L79.2368 7.52983" stroke="black" stroke-linecap="round" stroke-linejoin="round"/>
<path d="M143.541 27.8412L138.202 26.1558" stroke="black" stroke-linecap="round" stroke-linejoin="round"/>
<path d="M250.745 105.991L257.793 112.182" stroke="black" stroke-linecap="round" stroke-linejoin="round"/>
<path d="M188.015 50.838L246.405 102.172" stroke="black" stroke-linecap="round" stroke-linejoin="round"/>
<path d="M194.15 49.3102L234.017 63.8723" stroke="black" stroke-linecap="round" stroke-linejoin="round"/>
<path d="M230.662 43.3404L256.257 45.4747" stroke="black" stroke-linecap="round" stroke-linejoin="round"/>
<path d="M201.049 40.8754L227.811 43.1042" stroke="black" stroke-linecap="round" stroke-linejoin="round"/>
<path d="M269.56 6.93127L276.191 4.83635" stroke="black" stroke-linecap="round" stroke-linejoin="round"/>
<path d="M212.398 24.9823L267.654 7.52983" stroke="black" stroke-linecap="round" stroke-linejoin="round"/>
<path d="M203.349 27.8412L208.689 26.1558" stroke="black" stroke-linecap="round" stroke-linejoin="round"/>
<path d="M163.932 149C163.932 149 160.774 148.071 160.963 150.859C161.152 153.639 164.491 155.498 164.491 155.498L163.932 149Z" fill="white" stroke="black" stroke-linecap="round" stroke-linejoin="round"/>
<path d="M183.235 149C183.235 149 185.834 147.701 185.834 150.111C185.834 152.521 183.054 154.938 183.054 154.938L183.243 149H183.235Z" fill="white" stroke="black" stroke-linecap="round" stroke-linejoin="round"/>
<path d="M163.562 141.392C163.562 141.392 163.751 154.568 164.491 156.978C165.231 159.388 167.46 162.546 169.5 162.546C171.54 162.546 178.407 161.987 179.707 161.247C181.006 160.507 183.046 157.908 183.046 154.938C183.046 151.969 183.416 144.543 183.416 144.543C183.416 144.543 184.527 143.802 185.275 142.133C186.015 140.463 183.416 138.053 182.865 137.864C182.306 137.675 180.266 137.124 180.266 137.124C180.266 137.124 181.565 136.013 181.195 135.084C180.825 134.155 177.297 133.595 175.816 133.595C174.336 133.595 172.477 134.706 172.477 134.706C172.477 134.706 166.539 134.517 164.68 136.746C162.821 138.975 163.569 141.384 163.569 141.384L163.562 141.392Z" fill="black" stroke="black" stroke-linecap="round" stroke-linejoin="round"/>
<path d="M184.346 165.145L160.593 165.515C160.593 165.515 161.703 161.987 163.002 161.617C164.302 161.247 177.667 160.877 180.447 161.247C183.227 161.617 184.346 165.145 184.346 165.145Z" fill="#3CE300" stroke="black" stroke-linecap="round" stroke-linejoin="round"/>
<path d="M176.068 321.894C176.068 321.894 175.068 332.684 175.918 333.023C176.777 333.361 179.344 334.566 185.511 333.023C187.149 332.613 184.141 321.548 184.141 321.548C184.141 321.548 180.156 323.95 176.068 321.894Z" fill="black" stroke="black" stroke-linecap="round" stroke-linejoin="round"/>
<path d="M147.488 238.35L150.63 285.304C150.63 285.304 148.748 293.944 150.472 301.638C152.197 309.333 155.025 336.346 155.025 336.346C155.025 336.346 156.434 333.676 161.152 333.204C165.861 332.731 166.807 334.614 166.807 334.614C166.807 334.614 166.491 314.2 166.491 311.845C166.491 309.49 168.374 294.574 168.216 290.014C168.059 285.462 166.956 280.279 166.956 280.279L168.059 251.856L170.571 251.541C170.571 251.541 168.846 274.94 169.941 280.279C171.044 285.619 173.713 302.268 173.871 303.678C174.029 305.088 176.068 321.894 176.068 321.894C176.068 321.894 180.148 322.997 182.038 322.84C183.92 322.682 185.18 321.272 185.18 321.272C185.18 321.272 188.638 295.991 188.323 292.061C188.008 288.132 184.393 278.712 184.393 277.925C184.393 277.137 183.448 271.797 183.448 271.797C183.448 271.797 190.04 253.424 191.142 246.824C192.245 240.224 192.402 237.247 192.402 237.247C192.402 237.247 173.713 240.232 164.452 240.232C155.19 240.232 147.488 238.35 147.488 238.35Z" fill="#3CE300" stroke="black" stroke-linecap="round" stroke-linejoin="round"/>
<path d="M155.946 285.06C158.096 283.288 160.931 281.138 163.821 279.468" stroke="black" stroke-linecap="round" stroke-linejoin="round"/>
<path d="M152.158 288.391C152.158 288.391 152.985 287.604 154.331 286.43" stroke="black" stroke-linecap="round" stroke-linejoin="round"/>
<path d="M155.592 281.989L165.42 275.357" stroke="black" stroke-linecap="round" stroke-linejoin="round"/>
<path d="M192.402 237.247C192.402 237.247 173.713 240.232 164.452 240.232C155.19 240.232 147.488 238.35 147.488 238.35L147.677 241.145C150.394 243.193 155.237 246.95 159.207 250.588C163.877 254.873 166.838 256.668 167.854 257.227L168.059 251.856L170.571 251.541C170.571 251.541 168.846 274.94 169.941 280.279C170.445 282.737 171.288 287.596 172.06 292.266C173.209 288.62 175.422 284.265 179.494 283.839C182.392 283.54 184.881 284.461 186.811 285.666C185.7 282.012 184.385 278.397 184.385 277.925C184.385 277.137 183.44 271.797 183.44 271.797C183.44 271.797 190.032 253.424 191.134 246.824C192.237 240.224 192.395 237.247 192.395 237.247H192.402Z" fill="black" stroke="black" stroke-linecap="round" stroke-linejoin="round"/>
<path d="M142.014 229.135C142.014 229.135 143.171 231.324 143.943 231.584C144.715 231.844 145.361 234.16 145.361 236.475C145.361 238.791 144.589 239.05 144.589 239.05C144.589 239.05 145.747 240.468 145.235 242.138C144.723 243.815 141.368 244.973 139.958 245.485C138.541 245.997 136.351 243.681 135.453 242.524C134.555 241.366 135.193 232.096 135.193 232.096C135.193 232.096 141.502 230.419 142.022 229.135H142.014Z" fill="white" stroke="black" stroke-linecap="round" stroke-linejoin="round"/>
<path d="M144.589 239.05C144.589 239.05 142.014 240.082 141.628 240.342C141.242 240.602 139.824 238.924 140.336 238.413C140.848 237.901 142.786 236.609 142.786 236.609" stroke="black" stroke-linecap="round" stroke-linejoin="round"/>
<path d="M139.312 234.42C139.312 234.42 142.014 235.065 141.116 237.507" stroke="black" stroke-linecap="round" stroke-linejoin="round"/>
<path d="M140.856 239.956C140.856 239.956 138.155 240.988 138.155 242.02C138.155 243.051 139.446 244.335 140.218 244.209C140.99 244.083 140.092 243.051 140.092 243.051" stroke="black" stroke-linecap="round" stroke-linejoin="round"/>
<path d="M205.247 234.42C205.247 234.42 203.058 236.995 202.412 238.413C201.766 239.83 200.483 241.114 200.735 242.02C200.994 242.917 201.12 243.563 201.12 243.563C201.12 243.563 199.963 246.265 201.12 247.036C202.278 247.808 203.184 247.934 203.696 247.934C204.208 247.934 206.271 249.612 207.689 249.352C209.106 249.092 211.162 248.454 211.296 244.075C211.422 239.696 211.942 234.672 211.942 234.672C211.942 234.672 207.303 234.412 205.247 234.412V234.42Z" stroke="black" stroke-linecap="round" stroke-linejoin="round"/>
<path d="M201.121 243.563C201.121 243.563 204.594 245.753 205.625 245.753C206.657 245.753 207.429 244.209 206.657 243.437C205.885 242.665 203.696 241.248 203.696 241.248" stroke="black" stroke-linecap="round" stroke-linejoin="round"/>
<path d="M207.949 238.539C207.949 238.539 205.885 240.854 206.657 243.429" stroke="black" stroke-linecap="round" stroke-linejoin="round"/>
<path d="M207.051 244.201C207.051 244.201 209.5 244.847 209.626 245.619C209.752 246.391 209.5 247.682 208.98 247.682C208.461 247.682 208.209 246.784 208.209 246.784" stroke="black" stroke-linecap="round" stroke-linejoin="round"/>
<path d="M213.864 233.451C213.864 233.451 212.934 235.672 210.705 236.79C208.477 237.909 204.578 234.932 204.578 234.932L200.491 210.99L191.583 197.632L190.835 217.117C190.835 217.117 194.363 238.649 193.804 239.019C193.245 239.389 185.086 243.099 171.351 244.587C157.616 246.068 145.55 239.578 145.55 239.578L151.299 217.298L148.7 200.783L142.297 210.816L143.132 228.064C143.132 228.064 141.652 231.962 139.053 232.514C136.446 233.073 134.036 232.514 134.036 232.514C134.036 232.514 134.036 232.49 134.036 232.459C134.012 232.348 133.981 232.096 133.918 231.726C133.886 231.561 133.863 231.364 133.823 231.143C133.768 230.797 133.705 230.403 133.634 229.954C133.579 229.615 133.524 229.261 133.461 228.867C133.406 228.489 133.335 228.08 133.272 227.654C132.264 221.409 130.649 211.32 130.531 210.422V210.383C130.531 208.635 142.597 177.565 143.329 176.833C144.077 176.092 144.077 173.675 146.676 172.005C149.275 170.335 163.199 164.578 163.199 164.578C168.579 162.909 183.424 165.137 183.424 165.137C183.424 165.137 189.181 168.477 189.922 168.847C190.662 169.225 198.64 174.037 200.499 175.155C202.357 176.274 202.538 178.313 203.279 180.723C204.027 183.133 209.406 200.956 211.076 204.106C212.745 207.264 213.864 233.435 213.864 233.435V233.451Z" fill="#3CE300" stroke="black" stroke-linecap="round" stroke-linejoin="round"/>
<path d="M142.313 210.816L143.148 228.064C143.148 228.064 141.667 231.962 139.068 232.514C136.461 233.073 134.052 232.514 134.052 232.514C134.052 232.514 134.052 232.49 134.052 232.459C134.028 232.348 133.996 232.096 133.933 231.726C133.902 231.561 133.878 231.356 133.839 231.143C133.784 230.797 133.721 230.403 133.65 229.954C133.595 229.615 133.54 229.261 133.477 228.867C133.421 228.489 133.351 228.08 133.288 227.654C132.28 221.409 130.665 211.32 130.547 210.422V210.383C131.618 210.982 133.611 211.966 134.878 211.738C135.855 211.564 137.021 210.273 137.887 209.131C138.052 208.611 138.194 208.225 138.273 207.997C139.202 205.5 144.644 190.379 144.644 190.379L148.724 200.775L142.321 210.808L142.313 210.816Z" fill="black" stroke="black" stroke-linecap="round" stroke-linejoin="round"/>
<path d="M145.377 183.519L148.716 200.783" stroke="black" stroke-linecap="round" stroke-linejoin="round"/>
<path d="M194.245 185.654L191.583 197.625L197.151 185.748" stroke="black" stroke-linecap="round" stroke-linejoin="round"/>
<path d="M195.3 180.928L194.875 182.834" stroke="black" stroke-linecap="round" stroke-linejoin="round"/>
<path d="M170.059 187.418C170.059 187.418 180.825 207.091 182.865 208.391" stroke="black" stroke-linecap="round" stroke-linejoin="round"/>
<path d="M181.589 210.06L183.046 211.36" stroke="black" stroke-linecap="round" stroke-linejoin="round"/>
<path d="M173.209 202.641L180.069 208.721" stroke="black" stroke-linecap="round" stroke-linejoin="round"/>
<path d="M213.856 233.451C213.856 233.451 213.556 226.41 213.037 219.196C209.823 218.093 206.122 216.542 204.767 214.896C202.168 211.738 192.702 198.932 192.702 198.932L192.725 199.334L200.499 210.997L204.578 234.939C204.578 234.939 208.477 237.908 210.705 236.798C212.934 235.688 213.864 233.459 213.864 233.459L213.856 233.451Z" fill="black" stroke="black" stroke-linecap="round" stroke-linejoin="round"/>
<path d="M155.024 336.346L154.678 341.938C154.678 341.938 151.937 345.703 152.622 347.758C153.308 349.814 156.048 349.467 160.159 349.467C164.271 349.467 167.185 346.553 167.185 343.986C167.185 341.418 166.799 334.614 166.799 334.614C166.799 334.614 165.042 333.039 161.144 333.204C157.245 333.369 155.017 336.346 155.017 336.346H155.024Z" fill="black" stroke="black" stroke-linecap="round" stroke-linejoin="round"/>
<path d="M166.184 346.671C165.113 345.876 163.27 344.954 161.026 345.703C158.017 346.703 156.206 348.538 153.993 349.113C155.316 349.617 157.434 349.467 160.167 349.467C162.9 349.467 164.995 348.239 166.184 346.671Z" fill="white" stroke="black" stroke-linecap="round" stroke-linejoin="round"/>
<path d="M174.217 44.1989H169.996V62.1711H174.217V44.1989Z" fill="#0021C5" stroke="black" stroke-linecap="round" stroke-linejoin="round"/>
<path d="M178.336 66.0223H165.869L167.334 59.0524H176.871L178.336 66.0223Z" fill="#0021C5" stroke="black" stroke-linecap="round" stroke-linejoin="round"/>
<path d="M185.857 68.9599H158.348L161.285 62.5413H182.92L185.857 68.9599Z" fill="#0021C5" stroke="black" stroke-linecap="round" stroke-linejoin="round"/>
<path d="M158.167 25.1792C152.795 25.1792 148.448 29.6132 148.448 35.0789C148.448 40.5446 152.803 44.9786 158.167 44.9786C163.53 44.9786 167.885 40.5446 167.885 35.0789C167.885 29.6132 163.53 25.1792 158.167 25.1792ZM158.167 42.4662C154.166 42.4662 150.921 39.1585 150.921 35.0789C150.921 30.9993 154.166 27.6915 158.167 27.6915C162.167 27.6915 165.412 30.9993 165.412 35.0789C165.412 39.1585 162.167 42.4662 158.167 42.4662Z" fill="#0021C5" stroke="black" stroke-linecap="round" stroke-linejoin="round"/>
<path d="M187.511 25.1792C182.14 25.1792 177.792 29.6132 177.792 35.0789C177.792 40.5446 182.148 44.9786 187.511 44.9786C192.874 44.9786 197.23 40.5446 197.23 35.0789C197.23 29.6132 192.874 25.1792 187.511 25.1792ZM187.511 42.4662C183.51 42.4662 180.265 39.1585 180.265 35.0789C180.265 30.9993 183.51 27.6915 187.511 27.6915C191.512 27.6915 194.757 30.9993 194.757 35.0789C194.757 39.1585 191.512 42.4662 187.511 42.4662Z" fill="#0021C5" stroke="black" stroke-linecap="round" stroke-linejoin="round"/>
<path d="M172.106 49.1527C165.318 49.1527 159.82 43.6555 159.82 36.8666V24.2105H184.392V36.8666C184.392 43.6555 178.895 49.1527 172.106 49.1527Z" fill="#0021C5" stroke="black" stroke-linecap="round" stroke-linejoin="round"/>
<path d="M163.546 30.9599L168.736 40.1508L170.114 37.0714L173.485 37.6227L166.436 28.7784L163.546 30.9599Z" fill="black" stroke="black" stroke-linecap="round" stroke-linejoin="round"/>
<path d="M163.262 29.8731L161.458 40.2768L164.475 38.7647L166.735 41.3321L166.885 30.0227L163.262 29.8731Z" fill="black" stroke="black" stroke-linecap="round" stroke-linejoin="round"/>
<path d="M170.956 27.156C170.956 24.242 168.594 21.8793 165.68 21.8793C162.766 21.8793 160.403 24.242 160.403 27.156C160.403 30.07 162.766 32.4326 165.68 32.4326C168.594 32.4326 170.956 30.07 170.956 27.156Z" fill="white" stroke="black" stroke-linecap="round" stroke-linejoin="round"/>
<path d="M169.744 27.156C169.744 24.9114 167.924 23.0843 165.672 23.0843C163.42 23.0843 161.6 24.9035 161.6 27.156C161.6 29.4084 163.42 31.2277 165.672 31.2277C167.924 31.2277 169.744 29.4084 169.744 27.156Z" fill="white" stroke="black" stroke-linecap="round" stroke-linejoin="round"/>
<path d="M164.483 25.1083C165.129 25.1083 165.27 24.8012 165.396 24.4389H165.955V29.7392H165.121V25.699H164.475V25.1083H164.483Z" fill="black"/>
<path d="M209.303 154.356C208.673 150.78 207.76 141.896 213.162 137.541C220.022 132.012 224.889 141.967 230.859 134.225C236.829 126.484 238.601 109.669 256.305 109.89C274.002 110.11 275.333 120.065 275.333 123.389C275.333 126.712 280.641 129.138 281.751 129.138C282.862 129.138 289.052 126.263 291.265 132.674C293.478 139.093 291.974 142.802 295.494 142.936C299.007 143.07 303.378 138.274 308.166 140.676C312.955 143.07 312.955 148.165 314.947 149.93C316.94 151.702 320.255 148.599 324.682 150.371C327.359 151.442 328.17 153.159 328.399 154.356H209.319H209.303Z" fill="white" stroke="black" stroke-miterlimit="10"/>
<path d="M217.557 36.3153C217.352 35.1419 217.053 32.22 218.825 30.7866C221.077 28.9674 222.676 32.2436 224.637 29.6998C226.598 27.156 227.181 21.6272 233.001 21.706C238.821 21.7848 239.254 25.0532 239.254 26.14C239.254 27.2268 241.003 28.0302 241.365 28.0302C241.727 28.0302 243.767 27.0851 244.492 29.1957C245.216 31.3064 244.728 32.5272 245.878 32.5665C247.035 32.6138 248.469 31.0387 250.044 31.8262C251.619 32.6138 251.619 34.2834 252.273 34.8662C252.926 35.449 254.021 34.4331 255.47 35.008C256.352 35.3624 256.62 35.9216 256.691 36.3153H217.557Z" fill="white" stroke="black" stroke-miterlimit="10"/>
<path d="M208.154 86.1603C207.768 83.9788 207.216 78.5603 210.508 75.9062C214.69 72.5355 217.659 78.6076 221.306 73.8822C224.952 69.1568 226.031 58.9027 236.829 59.0366C247.626 59.1705 248.438 65.2426 248.438 67.2666C248.438 69.2907 251.674 70.7792 252.352 70.7792C253.029 70.7792 256.809 69.0229 258.156 72.9371C259.503 76.8513 258.589 79.1116 260.731 79.1983C262.874 79.277 265.543 76.3552 268.457 77.82C271.379 79.2849 271.379 82.3879 272.592 83.4669C273.805 84.5458 275.829 82.6557 278.53 83.7346C280.169 84.3883 280.657 85.4358 280.799 86.1603H208.154Z" fill="white" stroke="black" stroke-miterlimit="10"/>
<path d="M147.928 20.5876C148.204 19.0125 148.605 15.0983 146.227 13.1845C143.203 10.751 141.061 15.1298 138.43 11.7197C135.8 8.3095 135.02 0.906389 127.223 1.0009C119.426 1.0954 118.843 5.48214 118.843 6.94702C118.843 8.41189 116.504 9.48298 116.016 9.48298C115.528 9.48298 112.803 8.215 111.826 11.0424C110.85 13.8697 111.511 15.5 109.967 15.563C108.416 15.626 106.494 13.5074 104.391 14.5628C102.281 15.6181 102.281 17.8627 101.407 18.6424C100.532 19.4221 99.0676 18.0596 97.1223 18.8393C95.9409 19.3118 95.5865 20.0679 95.4841 20.5955H147.936L147.928 20.5876Z" fill="white" stroke="black" stroke-miterlimit="10"/>
<path d="M161.348 129.673C162.128 125.271 163.246 114.332 156.591 108.968C148.149 102.156 142.155 114.418 134.799 104.881C127.444 95.3434 125.262 74.6461 103.47 74.9139C81.6781 75.1896 80.04 87.4441 80.04 91.5315C80.04 95.619 73.5032 98.6118 72.1407 98.6118C70.7782 98.6118 63.1546 95.0677 60.4296 102.967C57.7046 110.866 59.5554 115.434 55.2238 115.607C50.8922 115.773 45.521 109.866 39.6221 112.819C33.7311 115.773 33.7311 122.034 31.2739 124.216C28.8246 126.397 24.7371 122.577 19.2872 124.759C15.9873 126.082 14.9871 128.193 14.7114 129.665H161.34L161.348 129.673Z" fill="white" stroke="black" stroke-miterlimit="10"/>
<path d="M106.471 85.0499C106.715 83.6559 107.069 80.1906 104.966 78.4973C102.289 76.3394 100.391 80.2221 98.0674 77.2057C95.7362 74.1893 95.051 67.6289 88.1441 67.7156C81.2371 67.8022 80.7252 71.6849 80.7252 72.9765C80.7252 74.2681 78.6539 75.2211 78.2208 75.2211C77.7876 75.2211 75.3777 74.1027 74.5113 76.5993C73.645 79.1038 74.2357 80.545 72.8653 80.6001C71.495 80.6553 69.7938 78.7808 67.9273 79.7181C66.0608 80.6553 66.0608 82.6399 65.2811 83.3251C64.5014 84.0182 63.2098 82.8053 61.485 83.4984C60.4375 83.9158 60.1225 84.5852 60.0359 85.0499H106.463H106.471Z" fill="white" stroke="black" stroke-miterlimit="10"/>
</svg>
