<svg width="336" height="320" viewBox="0 0 336 320" fill="none" xmlns="http://www.w3.org/2000/svg">
<path d="M316.401 137.121C316.401 137.121 270.73 25.7204 187.238 4.20523C103.746 -17.3099 68.7299 48.4701 55.935 94.098C43.1401 139.726 -4.00775 200.125 0.273876 241.614C4.34142 281.048 38.9013 299.694 71.1776 307.701C112.203 317.87 158.822 318.641 199.997 310.163C209.795 308.144 219.407 305.439 228.948 302.328C248.294 296.019 267.283 291.131 286.886 285.901C324.165 275.953 338.936 235.913 334.733 197.599C332.364 176.041 324.464 156.745 316.408 137.121H316.401Z" fill="#0021C5"/>
<path opacity="0.7" d="M316.401 137.121C316.401 137.121 270.73 25.7204 187.238 4.20523C103.746 -17.3099 68.7299 48.4701 55.935 94.098C43.1401 139.726 -4.00775 200.125 0.273876 241.614C4.34142 281.048 38.9013 299.694 71.1776 307.701C112.203 317.87 158.822 318.641 199.997 310.163C209.795 308.144 219.407 305.439 228.948 302.328C248.294 296.019 267.283 291.131 286.886 285.901C324.165 275.953 338.936 235.913 334.733 197.599C332.364 176.041 324.464 156.745 316.408 137.121H316.401Z" fill="white"/>
<path d="M291.253 15.1376H158.88V198.42H291.253V15.1376Z" stroke="black" stroke-linecap="round" stroke-linejoin="round"/>
<path d="M225.066 15.2447V199.062" stroke="black" stroke-linecap="round" stroke-linejoin="round"/>
<path d="M291.36 107.157H158.765" stroke="black" stroke-linecap="round" stroke-linejoin="round"/>
<path d="M291.36 61.1294H158.765" stroke="black" stroke-linecap="round" stroke-linejoin="round"/>
<path d="M291.36 153.184H158.765" stroke="black" stroke-linecap="round" stroke-linejoin="round"/>
<path d="M267.234 82.3734L254.332 94.7759" stroke="black" stroke-linecap="round" stroke-linejoin="round"/>
<path d="M286.422 63.9196L271.008 78.7412" stroke="black" stroke-linecap="round" stroke-linejoin="round"/>
<path d="M253.397 88.8672L249.301 92.8063" stroke="black" stroke-linecap="round" stroke-linejoin="round"/>
<path d="M270.994 71.9405L256.222 86.1484" stroke="black" stroke-linecap="round" stroke-linejoin="round"/>
<path d="M195.645 40.4064L182.743 52.8088" stroke="black" stroke-linecap="round" stroke-linejoin="round"/>
<path d="M214.833 21.9526L199.419 36.7813" stroke="black" stroke-linecap="round" stroke-linejoin="round"/>
<path d="M181.808 46.9002L177.712 50.8393" stroke="black" stroke-linecap="round" stroke-linejoin="round"/>
<path d="M199.405 29.9806L184.634 44.1813" stroke="black" stroke-linecap="round" stroke-linejoin="round"/>
<path d="M264.151 131.127L251.249 143.529" stroke="black" stroke-linecap="round" stroke-linejoin="round"/>
<path d="M283.339 112.673L267.926 127.502" stroke="black" stroke-linecap="round" stroke-linejoin="round"/>
<path d="M250.314 137.621L246.218 141.56" stroke="black" stroke-linecap="round" stroke-linejoin="round"/>
<path d="M267.911 120.701L253.133 134.902" stroke="black" stroke-linecap="round" stroke-linejoin="round"/>
<path d="M269.966 181.151L269.41 176.384C269.41 176.384 266.877 176.534 265.899 174.328C265.307 172.994 264.707 170.289 265.578 168.955C266.762 167.142 269.381 167.385 270.138 169.562C270.816 171.503 271.144 172.33 271.144 172.33C270.98 169.526 268.867 158.23 275.226 159.949C277.809 160.649 278.515 163.146 278.63 165.116C278.744 167.085 278.473 172.188 278.473 172.188C278.473 172.188 280.178 172.373 280.299 169.54C280.421 166.707 283.168 165.423 284.374 166.764C285.58 168.106 286.144 172.873 284.817 174.364C283.489 175.856 279.286 176.377 279.286 176.377L279.564 181.165H269.959L269.966 181.151Z" fill="#0021C5" stroke="black" stroke-linecap="round" stroke-linejoin="round"/>
<path d="M273.62 160.727C273.62 160.727 272.571 161.683 272.857 164.93C273.142 168.177 273.142 174.007 273.142 174.007" stroke="black" stroke-width="0.5" stroke-linecap="round" stroke-linejoin="round"/>
<path d="M276.396 162.925C276.396 162.925 277.637 162.732 277.259 165.694C276.874 168.655 277.259 173.151 277.259 173.151" stroke="black" stroke-width="0.5" stroke-linecap="round" stroke-linejoin="round"/>
<path d="M267.412 169.233C267.412 169.233 266.17 169.519 266.741 171.524C267.312 173.529 267.504 175.063 268.846 175.349C270.188 175.634 270.659 175.634 270.659 175.634L270.851 177.74" stroke="black" stroke-width="0.5" stroke-linecap="round" stroke-linejoin="round"/>
<path d="M279.457 175.256C279.457 175.256 283.375 175.349 284.139 173.729C284.902 172.102 284.424 169.333 284.424 169.333" stroke="black" stroke-width="0.5" stroke-linecap="round" stroke-linejoin="round"/>
<path d="M269.039 169.761C269.039 169.947 268.889 170.097 268.703 170.097C268.518 170.097 268.368 169.947 268.368 169.761C268.368 169.576 268.518 169.426 268.703 169.426C268.889 169.426 269.039 169.576 269.039 169.761Z" stroke="black" stroke-width="0.5" stroke-linecap="round" stroke-linejoin="round"/>
<path d="M269.845 173.965C270.03 173.965 270.181 173.814 270.181 173.629C270.181 173.444 270.03 173.294 269.845 173.294C269.66 173.294 269.51 173.444 269.51 173.629C269.51 173.814 269.66 173.965 269.845 173.965Z" stroke="black" stroke-width="0.5" stroke-linecap="round" stroke-linejoin="round"/>
<path d="M268.175 172.387C268.36 172.387 268.511 172.237 268.511 172.052C268.511 171.867 268.36 171.717 268.175 171.717C267.99 171.717 267.84 171.867 267.84 172.052C267.84 172.237 267.99 172.387 268.175 172.387Z" stroke="black" stroke-width="0.5" stroke-linecap="round" stroke-linejoin="round"/>
<path d="M274.962 168.427C275.147 168.427 275.297 168.277 275.297 168.092C275.297 167.906 275.147 167.756 274.962 167.756C274.776 167.756 274.626 167.906 274.626 168.092C274.626 168.277 274.776 168.427 274.962 168.427Z" stroke="black" stroke-width="0.5" stroke-linecap="round" stroke-linejoin="round"/>
<path d="M271.808 165.173C271.993 165.173 272.143 165.023 272.143 164.838C272.143 164.652 271.993 164.502 271.808 164.502C271.622 164.502 271.472 164.652 271.472 164.838C271.472 165.023 271.622 165.173 271.808 165.173Z" stroke="black" stroke-width="0.5" stroke-linecap="round" stroke-linejoin="round"/>
<path d="M276.396 176.498C276.396 176.683 276.246 176.833 276.06 176.833C275.875 176.833 275.725 176.683 275.725 176.498C275.725 176.312 275.875 176.162 276.06 176.162C276.246 176.162 276.396 176.312 276.396 176.498Z" stroke="black" stroke-width="0.5" stroke-linecap="round" stroke-linejoin="round"/>
<path d="M272.764 176.02C272.764 176.205 272.614 176.355 272.428 176.355C272.243 176.355 272.093 176.205 272.093 176.02C272.093 175.834 272.243 175.684 272.428 175.684C272.614 175.684 272.764 175.834 272.764 176.02Z" stroke="black" stroke-width="0.5" stroke-linecap="round" stroke-linejoin="round"/>
<path d="M275.532 162.119C275.718 162.119 275.868 161.969 275.868 161.783C275.868 161.598 275.718 161.448 275.532 161.448C275.347 161.448 275.197 161.598 275.197 161.783C275.197 161.969 275.347 162.119 275.532 162.119Z" stroke="black" stroke-width="0.5" stroke-linecap="round" stroke-linejoin="round"/>
<path d="M282.654 168.134C282.654 168.32 282.504 168.47 282.319 168.47C282.133 168.47 281.983 168.32 281.983 168.134C281.983 167.949 282.133 167.799 282.319 167.799C282.504 167.799 282.654 167.949 282.654 168.134Z" stroke="black" stroke-width="0.5" stroke-linecap="round" stroke-linejoin="round"/>
<path d="M281.463 173.015C281.648 173.015 281.798 172.865 281.798 172.68C281.798 172.495 281.648 172.345 281.463 172.345C281.277 172.345 281.127 172.495 281.127 172.68C281.127 172.865 281.277 173.015 281.463 173.015Z" stroke="black" stroke-width="0.5" stroke-linecap="round" stroke-linejoin="round"/>
<path d="M275.532 172.916C275.718 172.916 275.868 172.765 275.868 172.58C275.868 172.395 275.718 172.245 275.532 172.245C275.347 172.245 275.197 172.395 275.197 172.58C275.197 172.765 275.347 172.916 275.532 172.916Z" stroke="black" stroke-width="0.5" stroke-linecap="round" stroke-linejoin="round"/>
<path d="M283.154 178.061H265.949L267.669 192.161H281.434L283.154 178.061Z" fill="white" stroke="black" stroke-linecap="round" stroke-linejoin="round"/>
<path d="M27.1411 152.064L40.3071 278.179" stroke="black" stroke-width="2" stroke-miterlimit="10"/>
<path d="M38.1877 254.045L32.2219 247.744" stroke="black" stroke-width="2" stroke-miterlimit="10"/>
<path d="M34.0345 249.628C34.0345 249.628 34.2058 246.838 31.6582 244.569C30.124 243.198 22.0674 239.809 21.3038 242.649C20.4689 245.739 28.7253 251.797 34.0345 249.628Z" fill="#0021C5" stroke="black" stroke-miterlimit="10"/>
<path d="M34.0346 249.628L26.3562 244.847" stroke="black" stroke-width="0.5" stroke-miterlimit="10"/>
<path d="M39.6791 268.389L33.7134 262.088" stroke="black" stroke-width="2" stroke-miterlimit="10"/>
<path d="M35.526 263.971C35.526 263.971 35.6973 261.181 33.1497 258.912C31.6154 257.542 23.5589 254.152 22.7953 256.992C21.9604 260.082 30.2168 266.141 35.526 263.971Z" fill="#0021C5" stroke="black" stroke-miterlimit="10"/>
<path d="M35.526 263.971L27.8547 259.19" stroke="black" stroke-width="0.5" stroke-miterlimit="10"/>
<path d="M34.5338 219.043L28.5681 212.742" stroke="black" stroke-width="2" stroke-miterlimit="10"/>
<path d="M30.3807 214.633C30.3807 214.633 30.552 211.843 28.0044 209.573C26.4702 208.203 18.4136 204.814 17.65 207.654C16.8151 210.744 25.0715 216.802 30.3807 214.633Z" fill="#0021C5" stroke="black" stroke-miterlimit="10"/>
<path d="M30.3808 214.633L22.7024 209.852" stroke="black" stroke-width="0.5" stroke-miterlimit="10"/>
<path d="M36.0327 233.386L30.0598 227.085" stroke="black" stroke-width="2" stroke-miterlimit="10"/>
<path d="M31.8724 228.976C31.8724 228.976 32.0437 226.186 29.4961 223.917C27.9619 222.547 19.9053 219.157 19.1417 221.997C18.3068 225.087 26.5632 231.146 31.8724 228.976Z" fill="#0021C5" stroke="black" stroke-miterlimit="10"/>
<path d="M31.8724 228.976L24.2012 224.195" stroke="black" stroke-width="0.5" stroke-miterlimit="10"/>
<path d="M32.1005 195.744L26.1348 189.443" stroke="black" stroke-width="2" stroke-miterlimit="10"/>
<path d="M27.9474 191.334C27.9474 191.334 28.1187 188.543 25.5711 186.274C24.0368 184.904 15.9802 181.514 15.2167 184.355C14.3818 187.445 22.6382 193.503 27.9474 191.334Z" fill="#0021C5" stroke="black" stroke-miterlimit="10"/>
<path d="M27.9474 191.334L20.2761 186.553" stroke="black" stroke-width="0.5" stroke-miterlimit="10"/>
<path d="M29.6601 172.345L23.6943 166.044" stroke="black" stroke-width="2" stroke-miterlimit="10"/>
<path d="M25.507 167.927C25.507 167.927 25.6782 165.137 23.1307 162.868C21.5964 161.498 13.5398 158.108 12.7763 160.948C11.9413 164.038 20.1977 170.097 25.507 167.927Z" fill="#0021C5" stroke="black" stroke-miterlimit="10"/>
<path d="M25.507 167.927L17.8286 163.146" stroke="black" stroke-width="0.5" stroke-miterlimit="10"/>
<path d="M37.1816 245.56L41.7202 238.16" stroke="black" stroke-width="2" stroke-miterlimit="10"/>
<path d="M40.3358 240.38C40.3358 240.38 39.5937 237.689 41.6132 234.935C42.8263 233.279 50.0194 228.298 51.3539 230.917C52.8025 233.765 45.9876 241.4 40.3358 240.38Z" fill="#0021C5" stroke="black" stroke-miterlimit="10"/>
<path d="M40.3359 240.38L47.2436 233.779" stroke="black" stroke-width="0.5" stroke-miterlimit="10"/>
<path d="M33.2424 207.811L37.781 200.418" stroke="black" stroke-width="2" stroke-miterlimit="10"/>
<path d="M36.3966 202.637C36.3966 202.637 35.6545 199.947 37.674 197.192C38.8871 195.537 46.0802 190.556 47.4147 193.175C48.8633 196.022 42.0484 203.658 36.3966 202.637Z" fill="#0021C5" stroke="black" stroke-miterlimit="10"/>
<path d="M36.3965 202.637L43.3042 196.036" stroke="black" stroke-width="0.5" stroke-miterlimit="10"/>
<path d="M31.5154 191.227L36.0468 183.827" stroke="black" stroke-width="2" stroke-miterlimit="10"/>
<path d="M34.6625 186.053C34.6625 186.053 33.9203 183.363 35.9398 180.608C37.153 178.953 44.3461 173.972 45.6805 176.591C47.1291 179.438 40.3142 187.073 34.6625 186.053Z" fill="#0021C5" stroke="black" stroke-miterlimit="10"/>
<path d="M34.6624 186.053L41.5772 179.445" stroke="black" stroke-width="0.5" stroke-miterlimit="10"/>
<path d="M28.9751 166.907L33.5136 159.514" stroke="black" stroke-width="2" stroke-miterlimit="10"/>
<path d="M32.1293 161.733C32.1293 161.733 31.3871 159.043 33.4066 156.289C34.6198 154.633 41.8129 149.652 43.1473 152.271C44.5959 155.118 37.781 162.754 32.1293 161.733Z" fill="#0021C5" stroke="black" stroke-miterlimit="10"/>
<path d="M32.1292 161.733L39.0368 155.125" stroke="black" stroke-width="0.5" stroke-miterlimit="10"/>
<path d="M27.0341 151.365C27.0341 151.365 26.2919 148.674 28.3114 145.92C29.5245 144.264 36.7177 139.283 38.0521 141.902C39.5007 144.75 32.6858 152.385 27.0341 151.365Z" fill="#0021C5" stroke="black" stroke-miterlimit="10"/>
<path d="M27.0342 151.365L33.9419 144.757" stroke="black" stroke-width="0.5" stroke-miterlimit="10"/>
<path d="M27.4336 151.65C27.4336 151.65 24.6791 152.107 22.153 149.809C20.633 148.425 16.437 140.753 19.1773 139.704C22.1601 138.563 29.0393 146.141 27.4265 151.65H27.4336Z" fill="#0021C5" stroke="black" stroke-miterlimit="10"/>
<path d="M27.4338 151.65L21.5894 144.086" stroke="black" stroke-width="0.5" stroke-miterlimit="10"/>
<path d="M61.858 169.433L48.7705 295.556" stroke="black" stroke-width="2" stroke-miterlimit="10"/>
<path d="M51.6677 271.5L47.1221 264.107" stroke="black" stroke-width="2" stroke-miterlimit="10"/>
<path d="M48.5065 266.326C48.5065 266.326 49.2487 263.636 47.222 260.882C46.0018 259.226 38.8158 254.252 37.4814 256.871C36.0327 259.718 42.8548 267.354 48.4994 266.326H48.5065Z" fill="#0021C5" stroke="black" stroke-miterlimit="10"/>
<path d="M48.5065 266.326L41.9841 260.068" stroke="black" stroke-width="0.5" stroke-miterlimit="10"/>
<path d="M55.3001 236.498L50.7544 229.105" stroke="black" stroke-width="2" stroke-miterlimit="10"/>
<path d="M52.1389 231.324C52.1389 231.324 52.881 228.634 50.8544 225.879C49.6341 224.224 42.4481 219.25 41.1137 221.869C39.6651 224.716 46.4871 232.352 52.1317 231.324H52.1389Z" fill="#0021C5" stroke="black" stroke-miterlimit="10"/>
<path d="M52.1388 231.324L45.6165 225.066" stroke="black" stroke-width="0.5" stroke-miterlimit="10"/>
<path d="M53.8085 250.841L49.27 243.448" stroke="black" stroke-width="2" stroke-miterlimit="10"/>
<path d="M50.6545 245.667C50.6545 245.667 51.3966 242.977 49.37 240.223C48.1497 238.567 40.9637 233.593 39.6293 236.212C38.1807 239.06 45.0027 246.695 50.6474 245.667H50.6545Z" fill="#0021C5" stroke="black" stroke-miterlimit="10"/>
<path d="M50.6544 245.667L44.1321 239.409" stroke="black" stroke-width="0.5" stroke-miterlimit="10"/>
<path d="M57.719 213.198L53.1733 205.806" stroke="black" stroke-width="2" stroke-miterlimit="10"/>
<path d="M54.5578 208.025C54.5578 208.025 55.3 205.335 53.2733 202.58C52.0531 200.924 44.8671 195.951 43.5326 198.57C42.084 201.417 48.9061 209.052 54.5507 208.025H54.5578Z" fill="#0021C5" stroke="black" stroke-miterlimit="10"/>
<path d="M54.5577 208.025L48.0354 201.767" stroke="black" stroke-width="0.5" stroke-miterlimit="10"/>
<path d="M60.1455 189.792L55.5999 182.399" stroke="black" stroke-width="2" stroke-miterlimit="10"/>
<path d="M56.9914 184.619C56.9914 184.619 57.7335 181.928 55.7069 179.174C54.4866 177.518 47.3007 172.544 45.9662 175.163C44.5176 178.011 51.3397 185.646 56.9843 184.619H56.9914Z" fill="#0021C5" stroke="black" stroke-miterlimit="10"/>
<path d="M56.9914 184.619L50.4619 178.36" stroke="black" stroke-width="0.5" stroke-miterlimit="10"/>
<path d="M52.4314 262.987L58.3971 256.686" stroke="black" stroke-width="2" stroke-miterlimit="10"/>
<path d="M56.5845 258.577C56.5845 258.577 56.4133 255.786 58.9537 253.517C60.4879 252.147 68.5445 248.75 69.3081 251.59C70.143 254.68 61.8937 260.746 56.5774 258.577H56.5845Z" fill="#0021C5" stroke="black" stroke-miterlimit="10"/>
<path d="M56.5845 258.577L64.7053 253.531" stroke="black" stroke-width="0.5" stroke-miterlimit="10"/>
<path d="M56.3491 225.244L62.3149 218.936" stroke="black" stroke-width="2" stroke-miterlimit="10"/>
<path d="M60.5023 220.827C60.5023 220.827 60.331 218.037 62.8714 215.767C64.4057 214.397 72.4623 211.001 73.2258 213.841C74.0607 216.931 65.8115 222.996 60.4951 220.827H60.5023Z" fill="#0021C5" stroke="black" stroke-miterlimit="10"/>
<path d="M60.5022 220.827L68.623 215.789" stroke="black" stroke-width="0.5" stroke-miterlimit="10"/>
<path d="M58.0688 208.653L64.0346 202.352" stroke="black" stroke-width="2" stroke-miterlimit="10"/>
<path d="M62.222 204.236C62.222 204.236 62.0507 201.445 64.5911 199.176C66.1254 197.806 74.182 194.409 74.9455 197.249C75.7805 200.339 67.5312 206.405 62.2148 204.236H62.222Z" fill="#0021C5" stroke="black" stroke-miterlimit="10"/>
<path d="M62.2219 204.236L70.3427 199.198" stroke="black" stroke-width="0.5" stroke-miterlimit="10"/>
<path d="M60.595 184.333L66.5536 178.032" stroke="black" stroke-width="2" stroke-miterlimit="10"/>
<path d="M64.7481 179.923C64.7481 179.923 64.5768 177.133 67.1173 174.864C68.6515 173.494 76.7081 170.097 77.4717 172.937C78.3066 176.027 70.0573 182.092 64.741 179.923H64.7481Z" fill="#0021C5" stroke="black" stroke-miterlimit="10"/>
<path d="M64.7483 179.923L72.8691 174.878" stroke="black" stroke-width="0.5" stroke-miterlimit="10"/>
<path d="M61.8939 168.72C61.8939 168.72 61.7226 165.929 64.263 163.66C65.7973 162.29 73.8539 158.893 74.6174 161.733C75.4523 164.823 67.2031 170.889 61.8867 168.72H61.8939Z" fill="#0021C5" stroke="black" stroke-miterlimit="10"/>
<path d="M61.8938 168.72L70.0146 163.681" stroke="black" stroke-width="0.5" stroke-miterlimit="10"/>
<path d="M62.2292 169.083C62.2292 169.083 59.439 168.962 57.4409 166.193C56.2421 164.531 53.7088 156.16 56.6131 155.689C59.7673 155.182 64.9409 164.024 62.2292 169.076V169.083Z" fill="#0021C5" stroke="black" stroke-miterlimit="10"/>
<path d="M62.2292 169.083L58.0688 160.477" stroke="black" stroke-width="0.5" stroke-miterlimit="10"/>
<path d="M46.8652 118.075V277.566" stroke="black" stroke-width="2" stroke-miterlimit="10"/>
<path d="M46.9865 253.588L41.7058 246.695" stroke="black" stroke-width="2" stroke-miterlimit="10"/>
<path d="M43.3185 248.765C43.3185 248.765 43.7752 246.01 41.4845 243.484C40.1001 241.964 32.436 237.754 31.3799 240.501C30.231 243.484 37.8095 250.37 43.3185 248.765Z" fill="#0021C5" stroke="black" stroke-miterlimit="10"/>
<path d="M43.3184 248.765L36.1824 243.213" stroke="black" stroke-width="0.5" stroke-miterlimit="10"/>
<path d="M46.9865 223.61L41.7058 216.724" stroke="black" stroke-width="2" stroke-miterlimit="10"/>
<path d="M43.3185 218.793C43.3185 218.793 43.7752 216.039 41.4845 213.512C40.1001 211.993 32.436 207.782 31.3799 210.53C30.231 213.512 37.8095 220.399 43.3185 218.793Z" fill="#0021C5" stroke="black" stroke-miterlimit="10"/>
<path d="M43.3184 218.793L36.1824 213.241" stroke="black" stroke-width="0.5" stroke-miterlimit="10"/>
<path d="M46.9865 188.422L41.7058 181.536" stroke="black" stroke-width="2" stroke-miterlimit="10"/>
<path d="M43.3185 183.598C43.3185 183.598 43.7752 180.844 41.4845 178.318C40.1001 176.798 32.436 172.587 31.3799 175.335C30.231 178.318 37.8095 185.204 43.3185 183.598Z" fill="#0021C5" stroke="black" stroke-miterlimit="10"/>
<path d="M43.3184 183.598L36.1824 178.046" stroke="black" stroke-width="0.5" stroke-miterlimit="10"/>
<path d="M46.9865 164.995L41.7058 158.108" stroke="black" stroke-width="2" stroke-miterlimit="10"/>
<path d="M43.3185 160.171C43.3185 160.171 43.7752 157.416 41.4845 154.89C40.1001 153.37 32.436 149.16 31.3799 151.907C30.231 154.89 37.8095 161.776 43.3185 160.171Z" fill="#0021C5" stroke="black" stroke-miterlimit="10"/>
<path d="M43.3184 160.171L36.1824 154.619" stroke="black" stroke-width="0.5" stroke-miterlimit="10"/>
<path d="M46.9865 141.467L41.7058 134.581" stroke="black" stroke-width="2" stroke-miterlimit="10"/>
<path d="M43.3185 136.643C43.3185 136.643 43.7752 133.889 41.4845 131.362C40.1001 129.842 32.436 125.632 31.3799 128.38C30.231 131.362 37.8095 138.249 43.3185 136.643Z" fill="#0021C5" stroke="black" stroke-miterlimit="10"/>
<path d="M43.3184 136.643L36.1824 131.091" stroke="black" stroke-width="0.5" stroke-miterlimit="10"/>
<path d="M46.8723 262.737L52.153 255.851" stroke="black" stroke-width="2" stroke-miterlimit="10"/>
<path d="M50.5474 257.92C50.5474 257.92 50.0907 255.166 52.3813 252.639C53.7657 251.119 61.4298 246.909 62.486 249.657C63.6349 252.639 56.0564 259.526 50.5474 257.92Z" fill="#0021C5" stroke="black" stroke-miterlimit="10"/>
<path d="M50.5474 257.92L58.1044 252.069" stroke="black" stroke-width="0.5" stroke-miterlimit="10"/>
<path d="M46.8723 215.068L52.153 208.182" stroke="black" stroke-width="2" stroke-miterlimit="10"/>
<path d="M50.5474 210.244C50.5474 210.244 50.0907 207.49 52.3813 204.964C53.7657 203.444 61.4298 199.233 62.486 201.981C63.6349 204.964 56.0564 211.85 50.5474 210.244Z" fill="#0021C5" stroke="black" stroke-miterlimit="10"/>
<path d="M50.5474 210.244L58.1044 204.393" stroke="black" stroke-width="0.5" stroke-miterlimit="10"/>
<path d="M46.8723 191.541L52.153 184.654" stroke="black" stroke-width="2" stroke-miterlimit="10"/>
<path d="M50.5474 186.717C50.5474 186.717 50.0907 183.962 52.3813 181.436C53.7657 179.916 61.4298 175.706 62.486 178.453C63.6349 181.436 56.0564 188.322 50.5474 186.717Z" fill="#0021C5" stroke="black" stroke-miterlimit="10"/>
<path d="M50.5474 186.717L58.1044 180.865" stroke="black" stroke-width="0.5" stroke-miterlimit="10"/>
<path d="M46.8723 160.442L52.153 153.555" stroke="black" stroke-width="2" stroke-miterlimit="10"/>
<path d="M50.5474 155.618C50.5474 155.618 50.0907 152.863 52.3813 150.337C53.7657 148.817 61.4298 144.607 62.486 147.354C63.6349 150.337 56.0564 157.223 50.5474 155.618Z" fill="#0021C5" stroke="black" stroke-miterlimit="10"/>
<path d="M50.5474 155.618L58.1044 149.766" stroke="black" stroke-width="0.5" stroke-miterlimit="10"/>
<path d="M46.8726 135.994L52.1532 129.1" stroke="black" stroke-width="2" stroke-miterlimit="10"/>
<path d="M50.5474 131.17C50.5474 131.17 50.0907 128.415 52.3813 125.889C53.7657 124.369 61.4298 120.159 62.486 122.906C63.6349 125.889 56.0564 132.775 50.5474 131.17Z" fill="#0021C5" stroke="black" stroke-miterlimit="10"/>
<path d="M50.5476 131.17L58.1047 125.318" stroke="black" stroke-width="0.5" stroke-miterlimit="10"/>
<path d="M46.5584 120.323C46.5584 120.323 46.1016 117.568 48.3923 115.042C49.7767 113.522 57.4408 109.312 58.497 112.059C59.6459 115.042 52.0674 121.929 46.5584 120.323Z" fill="#0021C5" stroke="black" stroke-miterlimit="10"/>
<path d="M46.5583 120.323L54.1154 114.471" stroke="black" stroke-width="0.5" stroke-miterlimit="10"/>
<path d="M46.9224 120.651C46.9224 120.651 44.1322 120.822 41.8629 118.268C40.4999 116.733 37.1174 108.67 39.9576 107.906C43.0475 107.078 49.0989 115.335 46.9224 120.644V120.651Z" fill="#0021C5" stroke="black" stroke-miterlimit="10"/>
<path d="M46.9225 120.651L41.8987 112.523" stroke="black" stroke-width="0.5" stroke-miterlimit="10"/>
<path d="M53.4232 318.933H36.5322L34.4199 276.274H55.5355L53.4232 318.933Z" fill="black" stroke="black" stroke-miterlimit="10"/>
<path d="M206.042 145.577H258.128L245.996 190.263H193.91L206.042 145.577Z" fill="#3CE300" stroke="black" stroke-linecap="round" stroke-linejoin="round"/>
<path d="M207.526 147.24H255.73L244.505 188.601H196.301L207.526 147.24Z" fill="white" stroke="black" stroke-linecap="round" stroke-linejoin="round"/>
<path d="M245.996 187.894H172.98V190.27H245.996V187.894Z" fill="#3CE300" stroke="black" stroke-linecap="round" stroke-linejoin="round"/>
<path d="M245.996 187.894H212.443V190.27H245.996V187.894Z" fill="#0021C5" stroke="black" stroke-linecap="round" stroke-linejoin="round"/>
<path d="M153.549 194.052H149.624V318.655H153.549V194.052Z" fill="white" stroke="black" stroke-linecap="round" stroke-linejoin="round"/>
<path d="M146.27 318.655H149.624L149.624 194.053H146.27L146.27 318.655Z" fill="white" stroke="black" stroke-linecap="round" stroke-linejoin="round"/>
<path d="M254.089 259.247H250.164V318.655H254.089V259.247Z" fill="white" stroke="black" stroke-linecap="round" stroke-linejoin="round"/>
<path d="M246.81 318.662H250.164V259.254H246.81V318.662Z" fill="white" stroke="black" stroke-linecap="round" stroke-linejoin="round"/>
<path d="M296.12 259.247H292.195V318.655H296.12V259.247Z" fill="white" stroke="black" stroke-linecap="round" stroke-linejoin="round"/>
<path d="M288.841 318.662H292.195V259.254H288.841V318.662Z" fill="white" stroke="black" stroke-linecap="round" stroke-linejoin="round"/>
<path d="M211.265 262.637H249.557V195.258H211.265V262.637Z" fill="white" stroke="black" stroke-linecap="round" stroke-linejoin="round"/>
<path d="M300.016 195.266H249.557V262.644H300.016V195.266Z" fill="white" stroke="black" stroke-linecap="round" stroke-linejoin="round"/>
<path d="M249.557 195.266H211.265V198.548H249.557H300.016V195.266H249.557Z" fill="black" stroke="black" stroke-linecap="round" stroke-linejoin="round"/>
<path d="M247.181 199.126H214.533V214.854H247.181V199.126Z" fill="white" stroke="black" stroke-linecap="round" stroke-linejoin="round"/>
<path d="M235.157 205.506H226.551V208.474H235.157V205.506Z" fill="black"/>
<path d="M247.181 220.791H214.533V236.519H247.181V220.791Z" fill="white" stroke="black" stroke-linecap="round" stroke-linejoin="round"/>
<path d="M235.157 226.878H226.551V229.847H235.157V226.878Z" fill="black"/>
<path d="M247.181 242.456H214.533V258.184H247.181V242.456Z" fill="white" stroke="black" stroke-linecap="round" stroke-linejoin="round"/>
<path d="M235.157 248.244H226.551V251.212H235.157V248.244Z" fill="black"/>
<path d="M305.218 192.304H140.854V196.222H305.218V192.304Z" fill="white" stroke="black" stroke-linecap="round" stroke-linejoin="round"/>
<path d="M305.218 192.304H255.587V196.222H305.218V192.304Z" fill="white" stroke="black" stroke-linecap="round" stroke-linejoin="round"/>
<path d="M154.798 232.18C154.798 232.18 159.693 235.57 166.957 256.514C169.377 263.486 182.935 301.036 183.649 303.655C184.362 306.274 185.789 309.364 187.93 309.364C190.071 309.364 197.921 299.373 196.972 298.182C196.023 296.99 191.498 292.237 191.498 292.237C191.498 292.237 188.801 261.838 188.323 253.274C187.845 244.711 189.793 234.393 185.276 227.499C180.759 220.599 160.778 227.735 160.778 227.735L154.805 232.18H154.798Z" fill="white" stroke="black" stroke-linecap="round" stroke-linejoin="round"/>
<path d="M193.632 292.237C193.632 292.237 191.727 293.186 191.969 295.327C192.205 297.468 194.345 300.322 194.345 300.322C194.345 300.322 189.828 303.89 187.445 304.126C185.069 304.361 182.45 304.84 182.45 305.553C182.45 306.267 184.355 307.458 185.54 310.07C186.731 312.689 189.343 316.728 190.057 317.684C190.77 318.634 191.248 319.347 193.86 318.634C196.472 317.92 202.188 312.689 205.278 310.548C208.368 308.408 217.645 306.98 219.314 305.789C220.977 304.597 226.215 296.99 223.832 295.563C221.448 294.135 220.742 295.798 217.887 296.512C215.033 297.225 206.705 296.276 202.188 295.32C197.671 294.371 196.244 294.128 196.244 294.128L193.625 292.223L193.632 292.237Z" fill="#3CE300" stroke="black" stroke-linecap="round" stroke-linejoin="round"/>
<path d="M189.678 317.149C189.835 317.378 189.964 317.563 190.064 317.692C190.777 318.641 191.256 319.354 193.867 318.641C196.479 317.927 202.195 312.696 205.285 310.556C208.375 308.415 217.652 306.988 219.322 305.796C220.984 304.604 226.222 296.997 223.839 295.57C223.439 295.327 223.082 295.185 222.761 295.099C222.804 295.256 222.847 295.399 222.89 295.57C223.603 298.424 221.227 301.279 219.086 303.42C216.945 305.56 209.809 305.082 201.96 309.128C196.479 311.954 191.926 315.351 189.678 317.149Z" fill="white" stroke="black" stroke-linecap="round" stroke-linejoin="round"/>
<path d="M189.457 268.439C188.944 262.187 188.494 256.336 188.323 253.274C187.845 244.711 189.793 234.393 185.276 227.499C180.758 220.599 160.778 227.735 160.778 227.735L154.805 232.18C154.805 232.18 159.7 235.57 166.965 256.514C167.885 259.183 170.44 266.319 173.287 274.269L189.472 268.439H189.457Z" fill="black" stroke="black" stroke-linecap="round" stroke-linejoin="round"/>
<path d="M177.811 110.168C177.811 110.168 178.889 112.973 178.675 115.349C178.461 117.725 176.299 118.803 176.085 118.154C175.87 117.504 175.87 115.777 175.87 114.914V114.05C175.87 114.05 175.442 114.914 173.929 116.427C172.417 117.939 171.553 117.504 170.911 117.504C170.269 117.504 170.047 115.349 171.125 113.836C172.203 112.323 175.656 108.87 177.819 110.168H177.811Z" fill="white" stroke="black" stroke-linecap="round" stroke-linejoin="round"/>
<path d="M182.771 115.777C180.616 114.486 177.376 119.017 172.409 117.932C171.774 117.797 171.546 116.855 172.623 114.693C173.701 112.537 177.155 110.811 178.882 109.512C180.609 108.22 181.9 107.136 181.9 105.63C181.9 104.124 178.018 106.493 176.934 107.357C176.441 107.749 174.686 108.641 172.859 109.533C172.595 109.54 172.281 109.555 171.931 109.576C170.005 109.697 167.05 110.04 165.923 111.025C164.453 112.309 163.618 116.698 163.261 118.389C162.305 119.773 161.448 121.044 160.956 121.814C159.443 124.191 129.015 146.419 129.015 146.419L131.17 165.408L165.702 126.132C165.702 126.132 166.565 125.268 168.941 124.405C171.318 123.541 174.55 122.892 177.362 121.386C180.166 119.873 180.38 119.659 183.406 117.718C184.869 116.776 183.927 116.477 182.757 115.777H182.771Z" fill="white" stroke="black" stroke-linecap="round" stroke-linejoin="round"/>
<path d="M146.477 133.475C138.028 139.854 129.03 146.419 129.03 146.419L131.185 165.408L152.393 141.281L146.47 133.467L146.477 133.475Z" fill="#0021C5" stroke="black" stroke-linecap="round" stroke-linejoin="round"/>
<path d="M135.859 205.285C135.859 205.285 151.08 204.571 173.202 208.139C195.323 211.707 203.601 215.503 202.937 219.792C200.24 237.161 159.686 294.342 159.686 294.342L160.4 302.428C160.4 302.428 158.972 304.333 153.977 304.568C148.982 304.804 142.795 297.668 142.795 297.668C142.795 297.668 148.375 291.895 150.516 284.994C152.657 278.094 169.869 233.586 169.869 233.586C169.869 233.586 147.269 238.581 122.293 234.064C97.3169 229.547 135.852 205.285 135.852 205.285H135.859Z" fill="white" stroke="black" stroke-linecap="round" stroke-linejoin="round"/>
<path d="M173.209 208.139C151.087 204.571 135.866 205.285 135.866 205.285C135.866 205.285 97.3313 229.547 122.307 234.064C147.284 238.581 169.883 233.586 169.883 233.586C169.883 233.586 162.719 252.111 157.06 267.111L173.837 273.562C185.818 255.387 201.318 230.304 202.945 219.792C203.608 215.503 195.331 211.707 173.209 208.139Z" fill="black" stroke="black" stroke-linecap="round" stroke-linejoin="round"/>
<path d="M159.686 294.342C159.686 294.342 158.259 294.821 157.545 296.483C156.831 298.146 156.353 299.816 156.353 299.816C156.353 299.816 151.836 298.867 148.739 297.439C145.649 296.012 143.508 294.585 143.508 294.585C143.508 294.585 141.368 294.821 141.368 296.248C141.368 297.675 141.132 300.294 140.176 302.67C139.562 304.204 138.263 307.608 137.407 309.835C136.986 310.941 137.643 312.161 138.799 312.418C142.566 313.253 150.502 315.087 157.295 317.178C166.572 320.032 176.798 318.605 177.99 318.369C179.182 318.134 183.934 315.28 181.793 313.374C179.652 311.469 167.043 306.474 164.431 303.148C161.812 299.816 159.672 294.35 159.672 294.35L159.686 294.342Z" fill="#3CE300" stroke="black" stroke-linecap="round" stroke-linejoin="round"/>
<path d="M180.859 312.703C180.844 315.065 179.645 317.413 175.863 317.413C172.081 317.413 165.395 316.935 155.882 313.132C148.368 310.127 141.004 308.308 138.242 307.68C137.95 308.45 137.664 309.193 137.422 309.835C137.001 310.941 137.657 312.161 138.813 312.418C142.581 313.253 150.516 315.087 157.31 317.178C166.587 320.032 176.812 318.605 178.004 318.369C179.196 318.134 183.949 315.28 181.808 313.374C181.594 313.182 181.265 312.96 180.851 312.703H180.859Z" fill="white" stroke="black" stroke-linecap="round" stroke-linejoin="round"/>
<path d="M87.8115 149.873C87.8115 149.873 85.2211 170.375 85.4352 174.264C85.6493 178.146 88.4537 211.6 89.1031 218.943C89.7525 226.279 92.771 232.758 98.1659 234.05C103.561 235.342 117.59 237.29 123.634 235.777C129.679 234.264 136.151 220.67 138.313 215.489C140.468 210.308 141.981 207.069 141.332 205.991C140.682 204.914 137.878 202.537 137.878 202.537C137.878 202.537 132.483 163.26 131.184 153.113C129.893 142.973 130.535 142.109 125.79 138.22C121.044 134.338 96.439 131.098 87.8043 149.873H87.8115Z" fill="#0021C5" stroke="black" stroke-linecap="round" stroke-linejoin="round"/>
<path d="M122.343 221.441C121.565 222.033 120.752 222.597 119.924 223.125" stroke="black" stroke-linecap="round" stroke-linejoin="round"/>
<path d="M136.572 204.093C136.572 204.093 131.991 213.084 124.405 219.749" stroke="black" stroke-linecap="round" stroke-linejoin="round"/>
<path d="M133.247 204.571C133.247 204.571 125.875 211.472 118.497 215.753" stroke="black" stroke-linecap="round" stroke-linejoin="round"/>
<path d="M139.177 85.342C139.177 85.342 141.332 89.8734 141.981 93.1131C142.631 96.3529 142.845 99.3715 144.358 100.021C145.87 100.67 148.675 100.884 148.24 102.611C147.811 104.338 145 107.143 145 107.143C145 107.143 145.649 117.504 145.428 119.445C145.214 121.386 133.775 121.386 133.125 121.386C132.476 121.386 126.004 136.707 126.004 136.707L107.871 127.644L111.325 116.419C111.325 116.419 105.716 105.63 105.281 100.877C104.845 96.1246 115.856 87.4971 122.115 85.5561C128.373 83.6151 139.163 85.342 139.163 85.342H139.177Z" fill="white" stroke="black" stroke-linecap="round" stroke-linejoin="round"/>
<path d="M133.133 121.386L127.374 119.745L129.529 128.173L133.133 121.386Z" fill="black" stroke="black" stroke-linecap="round" stroke-linejoin="round"/>
<path d="M141.311 97.5517C141.603 98.772 141.46 99.8424 140.997 99.9566C140.533 100.071 139.919 99.1716 139.627 97.9514C139.334 96.7311 139.477 95.6607 139.94 95.5465C140.404 95.4323 141.018 96.3315 141.311 97.5517Z" fill="black"/>
<path d="M137.664 109.084C137.664 109.084 140.254 111.025 142.631 110.161" stroke="black" stroke-linecap="round" stroke-linejoin="round"/>
<path d="M138.099 81.2459C138.099 81.2459 141.118 86.6408 138.963 90.0946C136.808 93.5485 131.627 95.0613 128.822 98.2939C126.018 101.534 124.505 107.143 123.428 107.578C122.35 108.006 119.11 101.534 117.169 101.969C115.228 102.404 111.989 106.936 114.793 111.681C117.597 116.427 122.564 115.784 122.564 115.784C122.564 115.784 114.793 119.888 113.28 119.888C111.767 119.888 107.236 117.297 105.081 114.921C102.926 112.545 95.1546 105.423 94.7193 99.5998C94.284 93.7768 102.055 86.4338 102.055 86.4338C102.055 86.4338 92.7712 85.7845 95.1475 82.3306C97.5238 78.8768 105.937 76.7217 105.937 76.7217C105.937 76.7217 104.424 71.3268 106.587 70.2493C108.742 69.1717 121.908 73.4891 121.908 73.4891C121.908 73.4891 118.24 68.7436 123.42 68.5224C128.601 68.3083 137.45 74.7807 138.099 81.2531V81.2459Z" fill="black" stroke="black" stroke-linecap="round" stroke-linejoin="round"/>
<path d="M120.923 104.681L148.454 93.5485" stroke="black" stroke-linecap="round" stroke-linejoin="round"/>
<path d="M141.275 91.9857C141.853 91.7431 142.495 91.6075 143.166 91.6075C145.849 91.6075 148.018 93.784 148.018 96.4671C148.018 98.2868 147.019 99.871 145.535 100.706" stroke="black" stroke-linecap="round" stroke-linejoin="round"/>
<path d="M131.192 142.751C131.192 142.751 130.977 136.493 129.251 134.766C127.524 133.039 114.793 125.918 108.963 124.405C103.133 122.892 97.0956 125.054 93.2064 126.346C89.3244 127.637 86.734 131.312 85.2212 139.298C83.7083 147.283 83.4943 152.25 86.734 152.678C89.9738 153.106 94.5052 143.394 104.645 141.453C114.786 139.512 124.07 141.239 126.225 142.316C128.38 143.394 131.192 142.744 131.192 142.744V142.751Z" fill="#0021C5" stroke="black" stroke-linecap="round" stroke-linejoin="round"/>
<path d="M98.4086 136.129C96.4605 136.814 95.1475 137.357 95.1475 137.357" stroke="black" stroke-linecap="round" stroke-linejoin="round"/>
<path d="M131.192 142.751C131.192 142.751 117.597 135.194 112.631 133.689C110.04 132.897 105.388 133.938 101.527 135.109" stroke="black" stroke-linecap="round" stroke-linejoin="round"/>
<path d="M195.28 177.832C195.28 177.832 194.574 182.321 193.739 182.827C192.904 183.334 192.968 178.66 192.968 178.66C192.968 178.66 191.941 181.35 191.306 181.993C190.671 182.635 191.049 179.238 191.049 179.238L191.755 176.034L195.28 177.825V177.832Z" fill="white" stroke="black" stroke-linecap="round" stroke-linejoin="round"/>
<path d="M186.139 173.394L192.761 173.501C192.761 173.501 194.51 173.75 194.759 174.75C195.009 175.749 196.008 177.996 196.008 177.996L185.768 174.999L186.139 173.394Z" fill="white" stroke="black" stroke-linecap="round" stroke-linejoin="round"/>
<path d="M188.515 175.499C188.515 175.499 197.756 174.25 198.006 174.999C198.192 175.563 198.913 180.644 199.062 182.285C199.084 182.542 198.756 182.678 198.599 182.471L196.008 178.004L189.015 178.503C189.015 178.503 187.017 176.755 188.515 175.506V175.499Z" fill="white" stroke="black" stroke-linecap="round" stroke-linejoin="round"/>
<path d="M111.817 147.518C111.817 147.518 106.073 151.764 108.071 162.261C110.069 172.751 124.063 201.481 125.311 203.986C126.56 206.483 132.055 206.733 134.553 205.984C137.05 205.235 181.522 187.494 181.522 187.494C181.522 187.494 186.268 186.246 187.017 185.247C187.766 184.248 192.512 179.003 192.512 179.003C192.512 179.003 200.004 180.002 201.753 179.502C203.501 179.003 200.004 178.503 198.256 178.004C196.907 177.618 189.479 174.714 186.139 173.401C185.154 173.015 184.041 173.251 183.299 174.007C180.958 176.405 175.97 181.493 175.021 182.249C173.772 183.249 138.549 189.243 138.549 189.243C138.549 189.243 130.307 150.523 127.06 147.269C123.813 144.015 118.068 144.771 118.068 144.771" fill="#0021C5"/>
<path d="M111.817 147.518C111.817 147.518 106.073 151.764 108.071 162.261C110.069 172.751 124.063 201.481 125.311 203.986C126.56 206.483 132.055 206.733 134.553 205.984C137.05 205.235 181.522 187.494 181.522 187.494C181.522 187.494 186.268 186.246 187.017 185.247C187.766 184.248 192.512 179.003 192.512 179.003C192.512 179.003 200.004 180.002 201.753 179.502C203.501 179.003 200.004 178.503 198.256 178.004C196.907 177.618 189.479 174.714 186.139 173.401C185.154 173.015 184.041 173.251 183.299 174.007C180.958 176.405 175.97 181.493 175.021 182.249C173.772 183.249 138.549 189.243 138.549 189.243C138.549 189.243 130.307 150.523 127.06 147.269C123.813 144.015 118.068 144.771 118.068 144.771" stroke="black" stroke-linecap="round" stroke-linejoin="round"/>
<path d="M158.28 196.728C169.947 192.104 181.515 187.494 181.515 187.494C181.515 187.494 186.26 186.246 187.01 185.247C187.759 184.248 192.504 179.003 192.504 179.003C192.504 179.003 199.997 180.002 201.745 179.502C203.494 179.003 199.997 178.503 198.249 178.004C196.9 177.618 189.471 174.714 186.132 173.401C185.147 173.015 184.034 173.251 183.292 174.007C180.951 176.405 175.963 181.493 175.014 182.249C174.364 182.77 164.524 184.64 155.226 186.317L158.273 196.728H158.28Z" fill="white" stroke="black" stroke-linecap="round" stroke-linejoin="round"/>
<path d="M80.1976 245.896L69.3151 318.213C69.1724 318.948 70.2357 319.212 70.464 318.498L86.8555 247.08L80.1976 245.889V245.896Z" fill="black" stroke="black" stroke-linecap="round" stroke-linejoin="round"/>
<path d="M96.4392 246.374L101.178 318.084C101.235 318.826 102.334 318.805 102.362 318.063L103.183 245.782L96.4463 246.374H96.4392Z" fill="black" stroke="black" stroke-linecap="round" stroke-linejoin="round"/>
<path d="M112.403 247.459L125.39 317.913C125.547 318.641 126.632 318.469 126.553 317.727L118.989 245.924L112.403 247.459Z" fill="black" stroke="black" stroke-linecap="round" stroke-linejoin="round"/>
<path d="M137.507 246.859L148.133 317.799C148.261 318.534 149.353 318.405 149.303 317.656L144.151 245.596L137.507 246.859Z" fill="black" stroke="black" stroke-linecap="round" stroke-linejoin="round"/>
<path d="M127.352 232.423C127.352 232.423 114.864 228.263 109.034 213.27C103.204 198.284 93.6275 172.466 86.9696 169.133C80.3045 165.801 67.4025 172.045 66.5676 196.2C65.7327 220.349 67.688 238.317 73.0686 244.24C77.8283 249.471 85.9134 256.136 113.979 256.607C139.041 257.035 149.281 247.48 152.75 244.24C156.318 240.908 161.912 234.093 157.331 234.093C152.75 234.093 133.183 234.093 127.352 232.43V232.423Z" fill="white" stroke="black" stroke-linecap="round" stroke-linejoin="round"/>
<path d="M185.055 84.1717C185.055 84.1717 180.181 78.4843 173.409 77.3996C166.636 76.3149 166.18 86.2126 174.85 90.5442C178.547 92.3924 182.621 91.7573 182.621 91.7573C182.621 91.7573 175.714 99.9281 180.181 101.234C190.207 104.167 188.037 88.7745 188.037 88.7745L185.062 84.1717H185.055Z" fill="white" stroke="black" stroke-linecap="round" stroke-linejoin="round"/>
<path d="M186.689 83.8149C186.689 83.8149 183.842 76.8858 185.961 70.3635C188.08 63.8411 196.587 68.2726 196.501 77.9562C196.465 82.088 194.553 85.0923 194.553 85.0923C194.553 85.0923 205.442 82.773 204.101 87.2402C201.054 97.3877 189.429 88.5604 189.429 88.5604L186.689 83.8149Z" fill="white" stroke="black" stroke-linecap="round" stroke-linejoin="round"/>
<path d="M190.471 92.4709C190.228 92.4709 189.993 92.3496 189.857 92.1213L183.085 80.7464C182.885 80.411 182.992 79.9686 183.335 79.7688C183.67 79.569 184.113 79.676 184.312 80.0185L191.085 91.3934C191.284 91.7288 191.177 92.1712 190.835 92.371C190.721 92.4424 190.592 92.4709 190.471 92.4709Z" fill="black"/>
<path d="M184.241 81.7383C184.241 81.7383 181.801 76.5932 177.469 76.0509" stroke="black" stroke-linecap="round" stroke-linejoin="round"/>
<path d="M184.312 80.0185C184.312 80.0185 182.885 75.7797 183.97 73.068" stroke="black" stroke-linecap="round" stroke-linejoin="round"/>
<path d="M179.995 84.8282C179.738 86.0842 177.869 86.7692 175.813 86.3553C173.758 85.9415 172.303 84.5785 172.552 83.3225C172.809 82.0666 174.679 81.3815 176.734 81.7954C178.789 82.2093 180.245 83.5723 179.995 84.8282Z" fill="#3CE300" stroke="black" stroke-linecap="round" stroke-linejoin="round"/>
<path d="M185.062 93.677C185.79 94.1551 185.747 95.5038 184.969 96.6884C184.191 97.8729 182.971 98.451 182.243 97.9728C181.515 97.4947 181.558 96.146 182.336 94.9614C183.114 93.7769 184.334 93.1988 185.062 93.677Z" fill="#3CE300" stroke="black" stroke-linecap="round" stroke-linejoin="round"/>
<path d="M199.933 87.7041C199.948 88.5747 198.806 89.2954 197.386 89.3097C195.966 89.3239 194.81 88.6389 194.795 87.7683C194.781 86.8977 195.923 86.177 197.343 86.1627C198.763 86.1484 199.919 86.8335 199.933 87.7041Z" fill="#3CE300" stroke="black" stroke-linecap="round" stroke-linejoin="round"/>
<path d="M191.142 80.254C189.864 80.3968 188.644 78.8197 188.409 76.736C188.18 74.6522 189.03 72.8468 190.307 72.7041C191.584 72.5614 192.805 74.1384 193.04 76.2222C193.268 78.3059 192.419 80.1113 191.149 80.254H191.142Z" fill="#3CE300" stroke="black" stroke-linecap="round" stroke-linejoin="round"/>
</svg>
