<svg width="360" height="375" viewBox="0 0 360 375" fill="none" xmlns="http://www.w3.org/2000/svg">
<path d="M297.032 87.2364C293.394 84.7976 289.559 82.6209 285.544 80.7621C256.61 67.3447 221.089 71.7615 193.278 87.2602C165.467 102.759 144.654 128.092 129.511 155.499C122.595 168.027 116.4 181.484 105.289 190.739C90.9576 202.678 71.5949 205.371 54.5183 211.878C-7.58499 235.519 -8.29788 322.212 46.1357 354.583C67.5961 367.341 94.0959 371.194 118.752 372.974C152.905 375.444 187.689 374.181 220.671 365.236C253.66 356.299 284.863 339.283 306.938 313.894C335.847 280.633 346.991 235.416 345.533 191.946C344.795 169.949 340.977 147.77 331.382 127.822C323.663 111.783 311.97 97.2538 297.032 87.2364Z" fill="#0021C5"/>
<path opacity="0.7" d="M297.032 87.2364C293.394 84.7976 289.559 82.6209 285.544 80.7621C256.61 67.3447 221.089 71.7615 193.278 87.2602C165.467 102.759 144.654 128.092 129.511 155.499C122.595 168.027 116.4 181.484 105.289 190.739C90.9576 202.678 71.5949 205.371 54.5183 211.878C-7.58499 235.519 -8.29788 322.212 46.1357 354.583C67.5961 367.341 94.0959 371.194 118.752 372.974C152.905 375.444 187.689 374.181 220.671 365.236C253.66 356.299 284.863 339.283 306.938 313.894C335.847 280.633 346.991 235.416 345.533 191.946C344.795 169.949 340.977 147.77 331.382 127.822C323.663 111.783 311.97 97.2538 297.032 87.2364Z" fill="white"/>
<path d="M343.24 64.1058C343.24 64.1058 341.328 54.0771 332.732 52.6445C324.136 51.2118 318.885 62.6732 317.452 63.1534C316.02 63.6336 314.587 59.8078 309.809 61.7207C305.031 63.6336 302.645 67.9316 302.645 67.9316C302.645 67.9316 300.733 65.0663 297.395 65.5465C294.049 66.0267 291.184 69.3643 291.184 69.3643H359C359 69.3643 357.087 64.1138 352.789 62.6812C348.491 61.2485 343.24 64.1138 343.24 64.1138V64.1058Z" stroke="black" stroke-linecap="round" stroke-linejoin="round"/>
<path d="M46.1972 139.333C46.1972 139.333 44.5404 130.625 37.0729 129.384C29.6134 128.144 25.0513 138.093 23.8027 138.509C22.5621 138.925 21.3135 135.603 17.1676 137.268C13.0216 138.925 10.9487 142.655 10.9487 142.655C10.9487 142.655 9.29188 140.166 6.38652 140.582C3.48116 140.998 1 143.895 1 143.895H59.8756C59.8756 143.895 58.2188 139.333 54.4891 138.093C50.7593 136.852 46.1972 139.333 46.1972 139.333Z" stroke="black" stroke-linecap="round" stroke-linejoin="round"/>
<path d="M131.901 8.90399C131.901 8.90399 130.597 2.06078 124.738 1.08432C118.879 0.107866 115.294 7.92753 114.317 8.24768C113.341 8.57584 112.364 5.96661 109.107 7.27123C105.849 8.57584 104.224 11.5052 104.224 11.5052C104.224 11.5052 102.92 9.5523 100.639 9.88045C98.3577 10.2086 96.4048 12.4897 96.4048 12.4897H142.65C142.65 12.4897 141.346 8.90399 138.416 7.92753C135.487 6.95108 131.901 8.90399 131.901 8.90399Z" stroke="black" stroke-linecap="round" stroke-linejoin="round"/>
<path d="M89.5936 20.5574L83.6628 33.9557L90.0338 32.419C90.0338 32.419 88.273 38.3498 93.1073 43.6243C97.9415 48.8987 107.61 53.5089 105.849 60.3201C104.088 67.1313 99.4783 71.3012 100.359 79.433C101.239 87.5649 109.147 94.1519 109.147 94.1519L116.614 85.804C116.614 85.804 109.147 80.9698 112.004 72.4057C114.861 63.8417 117.407 55.95 112.444 47.8022C108.947 42.0475 100.895 43.056 95.9646 36.1567C93.3794 32.5391 94.4279 31.3225 94.4279 31.3225L100.359 29.5617L89.5936 20.5574Z" fill="#3CE300"/>
<path d="M173.577 21.2377L163.692 28.265L168.527 29.5857C168.527 29.5857 163.036 35.5164 164.573 42.5437C166.11 49.571 178.411 57.4787 179.076 62.7532C179.732 68.0277 174.465 75.9354 174.465 75.9354L183.47 79.0089C183.47 79.0089 189.625 66.483 187.207 59.0155C184.79 51.548 170.952 44.9529 169.855 39.2462C168.759 33.5315 172.272 29.8018 172.272 29.8018L176.01 30.242L173.593 21.2377H173.577Z" fill="#3CE300"/>
<path d="M216.333 17.2679L207.625 18.4365L210.274 20.9096C210.274 20.9096 204.751 22.8545 203.367 27.8809C201.982 32.9073 207.201 42.1276 205.84 45.7293C204.479 49.331 198.437 52.6205 198.437 52.6205L203.175 57.6309C203.175 57.6309 211.347 51.6761 212.315 46.0734C213.283 40.4708 206.64 31.5706 207.865 27.5447C209.09 23.5109 212.603 22.3023 212.603 22.3023L214.852 23.847L216.341 17.2599L216.333 17.2679Z" fill="#0021C5"/>
<path d="M51.8638 58.087L60.3237 55.7019L58.8751 59.0315C58.8751 59.0315 64.7178 58.6233 67.9833 62.6892C71.2489 66.7551 70.1283 77.288 72.8016 80.0493C75.4748 82.8186 82.334 83.4349 82.334 83.4349L79.9809 89.918C79.9809 89.918 70.1203 87.7009 67.0069 82.9467C63.8934 78.1925 66.4546 67.3874 63.7333 64.1699C61.0121 60.9524 57.3063 61.2405 57.3063 61.2405L55.8576 63.5456L51.8718 58.087H51.8638Z" fill="#0021C5"/>
<path d="M213.78 69.0282C213.78 69.0282 213.011 67.1233 214.468 63.1534C215.933 59.1836 220.111 58.5593 220.111 58.5593C220.111 58.5593 220.735 61.0644 219.694 63.5776C218.646 66.0828 213.78 69.0362 213.78 69.0362V69.0282Z" fill="#0021C5"/>
<path d="M86.448 49.427C86.448 49.427 84.407 49.6831 80.9494 47.25C77.4838 44.8168 77.948 40.6149 77.948 40.6149C77.948 40.6149 80.5332 40.6549 82.6862 42.3037C84.8392 43.9524 86.448 49.419 86.448 49.419V49.427Z" fill="black" stroke="black" stroke-linecap="round" stroke-linejoin="round"/>
<path d="M64.0056 100.363C64.0056 100.363 65.1421 98.6501 69.2481 97.6176C73.354 96.5851 76.2273 99.6826 76.2273 99.6826C76.2273 99.6826 74.5145 101.619 71.8493 102.172C69.184 102.724 64.0056 100.371 64.0056 100.371V100.363Z" fill="#0021C5"/>
<path d="M154.36 17.2919C154.36 17.2919 155.529 18.9807 154.976 23.1747C154.424 27.3686 150.486 28.9054 150.486 28.9054C150.486 28.9054 149.326 26.6003 149.79 23.919C150.254 21.2378 154.36 17.2919 154.36 17.2919Z" fill="#0021C5"/>
<path d="M192.946 8.36778C192.946 8.36778 190.617 5.12626 187.087 6.47089C184.822 7.33529 182.565 10.2567 183.974 13.5622C185.374 16.8678 192.29 22.6225 192.29 22.6225C192.29 22.6225 201.894 17.6361 202.254 11.3932C202.526 6.58294 196.7 4.16581 192.946 8.36778Z" fill="black"/>
<path d="M196.684 12.6337H193.882V9.83241H191.545V12.6337H188.744V14.9708H191.545V17.7721H193.882V14.9708H196.684V12.6337Z" fill="#0021C5"/>
<path d="M39.9704 88.4773C39.9704 88.4773 36.0645 87.6609 34.3677 91.0305C33.2792 93.1995 33.5914 96.8732 36.8489 98.3619C40.1144 99.8586 49.1027 99.4344 49.1027 99.4344C49.1027 99.4344 52.8244 89.2697 48.8785 84.4274C45.8371 80.6897 39.9063 82.8427 39.9704 88.4773Z" fill="black"/>
<path d="M45.6131 89.1016L43.5402 90.9985L41.6513 88.9255L39.9305 90.5022L41.8194 92.5752L39.7544 94.4641L41.3311 96.1849L43.3961 94.296L45.285 96.361L47.0138 94.7923L45.1169 92.7193L47.1899 90.8304L45.6131 89.1016Z" fill="#0021C5"/>
<path d="M217.83 136.916C217.83 136.916 218.062 132.93 214.484 131.754C212.179 130.993 208.593 131.842 207.593 135.283C206.592 138.733 208.329 147.561 208.329 147.561C208.329 147.561 218.926 149.754 223.144 145.136C226.394 141.574 223.392 136.028 217.838 136.916H217.83Z" fill="black"/>
<path d="M218.038 142.583L215.861 140.814L217.629 138.645L215.821 137.172L214.052 139.341L211.875 137.572L210.402 139.389L212.571 141.158L210.81 143.327L212.619 144.808L214.388 142.631L216.565 144.4L218.038 142.583Z" fill="#0021C5"/>
<path d="M128.124 42.2716C128.124 42.2716 126.323 40.4708 123.778 40.0226C121.233 39.5744 118.231 35.8286 121.08 33.5795C123.93 31.3305 128.572 36.725 129.172 38.3738L129.773 40.0226C129.773 40.0226 128.42 33.4275 129.172 29.9779C129.925 26.5282 135.319 26.9765 135.471 31.0263C135.623 35.0762 133.526 38.6699 133.526 38.6699C133.526 38.6699 136.672 34.7721 139.073 33.8757C141.474 32.9793 144.467 36.2768 143.267 38.5259C142.066 40.7749 135.023 41.6713 133.822 42.4237C132.622 43.176 130.373 43.9204 128.124 42.2716Z" fill="#0021C5"/>
<path d="M128.123 42.2717C128.123 42.2717 129.02 45.4171 130.669 45.5692C132.317 45.7213 133.814 42.4237 133.814 42.4237C133.814 42.4237 129.316 42.2717 128.115 42.2717H128.123Z" fill="black" stroke="black" stroke-linecap="round" stroke-linejoin="round"/>
<path d="M130.677 45.5692C130.677 45.5692 130.229 65.6506 136.672 85.588L130.677 45.5692Z" fill="white"/>
<path d="M130.677 45.5692C130.677 45.5692 130.229 65.6506 136.672 85.588" stroke="black" stroke-linecap="round" stroke-linejoin="round"/>
<path d="M131.125 56.5103C131.125 56.5103 129.18 54.4134 127.075 51.8602C124.978 49.315 120.928 47.5141 120.928 47.5141C120.928 47.5141 120.176 52.3084 123.626 55.0056C127.075 57.7029 131.117 56.5023 131.117 56.5023L131.125 56.5103Z" fill="black" stroke="black" stroke-linecap="round" stroke-linejoin="round"/>
<path d="M131.125 56.5103C131.125 56.5103 132.021 52.1643 133.822 50.2114C135.623 48.2664 139.761 46.1454 139.761 46.1454C139.761 46.1454 139.369 49.9072 137.872 53.3568C136.375 56.8064 131.125 56.5023 131.125 56.5023V56.5103Z" fill="black" stroke="black" stroke-linecap="round" stroke-linejoin="round"/>
<path d="M132.173 65.2024C132.173 65.2024 130.228 63.1054 128.124 60.5522C126.027 58.007 121.977 56.2062 121.977 56.2062C121.977 56.2062 121.224 61.0004 124.674 63.6977C128.124 66.395 132.165 65.1944 132.165 65.1944L132.173 65.2024Z" fill="black" stroke="black" stroke-linecap="round" stroke-linejoin="round"/>
<path d="M132.173 65.2024C132.173 65.2024 132.622 62.201 134.422 60.256C136.223 58.3111 140.809 54.8455 140.809 54.8455C140.809 54.8455 140.721 58.3111 139.217 61.7608C137.72 65.2104 132.173 65.2104 132.173 65.2104V65.2024Z" fill="black" stroke="black" stroke-linecap="round" stroke-linejoin="round"/>
<path d="M133.974 76.1435C133.974 76.1435 133.374 74.9429 131.277 72.3977C129.18 69.8525 123.786 67.1553 123.786 67.1553C123.786 67.1553 123.185 73.1501 126.635 75.8473C130.085 78.5446 133.982 76.1435 133.982 76.1435H133.974Z" fill="black" stroke="black" stroke-linecap="round" stroke-linejoin="round"/>
<path d="M133.974 76.1435C133.974 76.1435 134.423 73.1421 136.223 71.1972C138.024 69.2523 142.61 65.7867 142.61 65.7867C142.61 65.7867 142.37 69.5484 140.874 72.998C139.377 76.4476 133.982 76.1435 133.982 76.1435H133.974Z" fill="black" stroke="black" stroke-linecap="round" stroke-linejoin="round"/>
<path d="M184.574 138.141C184.574 138.141 197.836 125.046 202.415 108.943L184.574 138.141Z" fill="white"/>
<path d="M184.574 138.141C184.574 138.141 197.836 125.046 202.415 108.943" stroke="#0021C5" stroke-linecap="round" stroke-linejoin="round"/>
<path d="M201.246 112.641C201.246 112.641 204.544 110.744 204.424 106.782C204.36 104.429 203.407 101.211 202.343 101.836C201.278 102.468 200.094 104.605 199.685 106.806C199.101 109.895 201.246 112.641 201.246 112.641Z" fill="#0021C5"/>
<path d="M198.285 119.004C198.285 119.004 199.237 114.866 197.836 112.969C196.436 111.072 193.25 108.511 192.77 109.647C192.29 110.784 192.69 114.049 193.626 116.082C194.571 118.115 198.285 118.996 198.285 118.996V119.004Z" fill="#0021C5"/>
<path d="M209.41 119.908C209.41 119.908 206.465 116.859 204.112 116.995C201.758 117.131 197.877 118.411 198.565 119.436C199.253 120.46 202.207 121.909 204.432 122.221C206.657 122.533 209.418 119.908 209.418 119.908H209.41Z" fill="#0021C5"/>
<path d="M194.635 125.175C194.635 125.175 195.587 121.037 194.187 119.14C192.786 117.243 189.601 114.682 189.12 115.818C188.64 116.955 189.04 120.22 189.977 122.253C190.913 124.286 194.635 125.167 194.635 125.167V125.175Z" fill="#0021C5"/>
<path d="M205.76 126.079C205.76 126.079 202.815 123.03 200.462 123.166C198.109 123.302 194.227 124.582 194.915 125.607C195.603 126.631 198.557 128.08 200.782 128.392C202.999 128.712 205.768 126.079 205.768 126.079H205.76Z" fill="#0021C5"/>
<path d="M190.713 130.785C190.713 130.785 191.666 126.647 190.265 124.75C188.864 122.853 185.679 120.292 185.199 121.429C184.718 122.565 185.119 125.831 186.055 127.864C187 129.897 190.713 130.777 190.713 130.777V130.785Z" fill="#0021C5"/>
<path d="M201.838 131.69C201.838 131.69 198.893 128.64 196.54 128.776C194.187 128.912 190.305 130.193 190.993 131.217C191.682 132.242 194.635 133.691 196.86 134.003C199.077 134.323 201.847 131.69 201.847 131.69H201.838Z" fill="#0021C5"/>
<path d="M186.439 135.956C186.439 135.956 187.392 131.818 185.991 129.921C184.59 128.024 181.405 125.463 180.925 126.599C180.444 127.736 180.844 131.001 181.781 133.034C182.725 135.067 186.439 135.948 186.439 135.948V135.956Z" fill="#0021C5"/>
<path d="M197.564 136.86C197.564 136.86 194.619 133.811 192.266 133.947C189.913 134.083 186.031 135.363 186.719 136.388C187.408 137.412 190.361 138.861 192.586 139.173C194.803 139.493 197.572 136.86 197.572 136.86H197.564Z" fill="#0021C5"/>
<path d="M84.4871 130.809C84.4871 130.809 82.27 130.953 80.5092 132.37C78.7484 133.787 74.5624 133.602 74.7225 130.433C74.8826 127.264 81.1015 127.32 82.5341 127.872L83.9588 128.424C83.9588 128.424 78.8444 125.519 77.0116 123.038C75.1787 120.564 78.5803 117.275 81.3256 119.5C84.0709 121.733 85.2314 125.183 85.2314 125.183C85.2314 125.183 84.4791 120.868 85.2714 118.78C86.0638 116.683 89.9536 116.61 90.738 118.691C91.5224 120.772 88.0647 125.919 87.8646 127.143C87.6645 128.36 86.8642 130.273 84.4871 130.801V130.809Z" fill="#0021C5"/>
<path d="M84.4871 130.809C84.4871 130.809 87.0723 132.026 88.1208 131.033C89.1693 130.033 87.8646 127.151 87.8646 127.151C87.8646 127.151 85.1754 130.025 84.4871 130.809Z" fill="black" stroke="black" stroke-linecap="round" stroke-linejoin="round"/>
<path d="M88.1211 131.025C88.1211 131.025 101.063 142.879 117.879 150.114L88.1211 131.025Z" fill="white"/>
<path d="M88.1211 131.025C88.1211 131.025 101.063 142.879 117.879 150.114" stroke="black" stroke-linecap="round" stroke-linejoin="round"/>
<path d="M95.5723 137.028C95.5723 137.028 93.0751 137.1 90.1858 137.012C87.3044 136.924 83.7908 138.549 83.7908 138.549C83.7908 138.549 86.512 141.798 90.2658 141.086C94.0196 140.374 95.5643 137.02 95.5643 137.02L95.5723 137.028Z" fill="black" stroke="black" stroke-linecap="round" stroke-linejoin="round"/>
<path d="M95.5725 137.028C95.5725 137.028 93.2354 133.939 92.9873 131.634C92.7392 129.328 93.7317 125.391 93.7317 125.391C93.7317 125.391 95.9807 127.816 97.3814 130.785C98.782 133.755 95.5725 137.028 95.5725 137.028Z" fill="black" stroke="black" stroke-linecap="round" stroke-linejoin="round"/>
<path d="M101.887 141.342C101.887 141.342 99.3903 141.414 96.501 141.326C93.6196 141.238 90.106 142.863 90.106 142.863C90.106 142.863 92.8272 146.112 96.581 145.4C100.335 144.688 101.879 141.334 101.879 141.334L101.887 141.342Z" fill="black" stroke="black" stroke-linecap="round" stroke-linejoin="round"/>
<path d="M101.887 141.342C101.887 141.342 100.175 139.325 99.9265 137.02C99.6784 134.715 100.047 129.705 100.047 129.705C100.047 129.705 102.272 131.754 103.672 134.723C105.073 137.692 101.887 141.334 101.887 141.334V141.342Z" fill="black" stroke="black" stroke-linecap="round" stroke-linejoin="round"/>
<path d="M110.115 146.456C110.115 146.456 108.979 146.16 106.097 146.072C103.216 145.984 98.3337 147.977 98.3337 147.977C98.3337 147.977 101.927 151.819 105.689 151.107C109.451 150.394 110.115 146.448 110.115 146.448V146.456Z" fill="black" stroke="black" stroke-linecap="round" stroke-linejoin="round"/>
<path d="M110.115 146.456C110.115 146.456 108.403 144.44 108.155 142.134C107.906 139.829 108.275 134.819 108.275 134.819C108.275 134.819 110.612 137.14 112.012 140.11C113.413 143.079 110.115 146.456 110.115 146.456Z" fill="black" stroke="black" stroke-linecap="round" stroke-linejoin="round"/>
<path d="M156.929 86.3323C156.929 86.3323 160.267 113.385 155.969 129.889L156.929 86.3323Z" fill="white"/>
<path d="M156.929 86.3323C156.929 86.3323 160.267 113.385 155.969 129.889" stroke="black" stroke-linecap="round" stroke-linejoin="round"/>
<path d="M156.497 78.5047C156.497 78.5047 158.01 72.9181 159.986 73.5744C161.963 74.2307 162.332 79.6332 162.34 81.282C162.348 82.9308 159.482 84.4355 158.114 85.5C156.745 86.5645 156.505 78.4967 156.505 78.4967L156.497 78.5047Z" fill="#0021C5"/>
<path d="M157.89 100.731C157.89 100.731 150.702 98.8182 149.558 94.7603C148.405 90.7024 152.919 75.7994 155.056 76.8879C157.193 77.9764 158.114 85.508 158.114 85.508C158.114 85.508 162.052 76.9279 163.884 77.1521C165.717 77.3762 167.334 89.3258 165.693 94.2721C164.052 99.2264 157.89 100.731 157.89 100.731Z" fill="#0021C5"/>
<path d="M156.745 128.384C156.745 128.384 158.193 117.675 161.883 112.737C165.573 107.806 176.322 95.1045 176.322 95.1045C176.322 95.1045 173.913 106.446 168.574 119.82C164.156 130.897 156.737 128.384 156.737 128.384H156.745Z" fill="black"/>
<path d="M156.137 123.758C156.137 123.758 155.144 117.283 150.438 109.943C145.732 102.604 139.041 95.7207 139.041 95.7207C139.041 95.7207 141.69 114.233 145.42 119.212C149.15 124.19 156.457 129.128 156.457 129.128L156.137 123.75V123.758Z" fill="black"/>
<path d="M131.445 136.348C131.445 136.348 120.112 113.409 101.111 100.491L131.445 136.348Z" fill="white"/>
<path d="M131.445 136.348C131.445 136.348 120.112 113.409 101.111 100.491" stroke="#0021C5" stroke-linecap="round" stroke-linejoin="round"/>
<path d="M105.425 103.604C105.425 103.604 104.376 98.49 99.166 96.9293C96.0686 96.0008 91.4664 95.8488 91.8266 97.5055C92.1867 99.1623 94.4598 101.627 97.1491 103.116C100.927 105.205 105.425 103.604 105.425 103.604Z" fill="#0021C5"/>
<path d="M112.428 110.216C112.428 110.216 107.45 107.19 104.376 108.191C101.303 109.191 96.5887 112.24 97.8613 113.361C99.1339 114.482 103.56 115.37 106.617 115.026C109.675 114.674 112.428 110.216 112.428 110.216Z" fill="#0021C5"/>
<path d="M118.415 96.1049C118.415 96.1049 113.165 98.626 112.324 101.756C111.492 104.877 111.468 110.496 113.109 110.039C114.741 109.583 117.903 106.358 119.271 103.604C120.64 100.851 118.407 96.1129 118.407 96.1129L118.415 96.1049Z" fill="#0021C5"/>
<path d="M118.895 117.635C118.895 117.635 113.917 114.61 110.843 115.61C107.77 116.61 103.056 119.66 104.328 120.78C105.601 121.901 110.027 122.789 113.084 122.445C116.142 122.093 118.895 117.635 118.895 117.635Z" fill="#0021C5"/>
<path d="M124.882 103.524C124.882 103.524 119.632 106.046 118.791 109.175C117.959 112.296 117.935 117.915 119.576 117.459C121.208 117.003 124.37 113.777 125.738 111.024C127.107 108.271 124.874 103.532 124.874 103.532L124.882 103.524Z" fill="#0021C5"/>
<path d="M124.506 125.175C124.506 125.175 119.527 122.149 116.454 123.15C113.381 124.15 108.666 127.2 109.939 128.32C111.212 129.441 115.638 130.329 118.695 129.985C121.752 129.633 124.506 125.175 124.506 125.175Z" fill="#0021C5"/>
<path d="M130.5 111.064C130.5 111.064 125.25 113.585 124.41 116.715C123.577 119.836 123.553 125.455 125.194 124.998C126.827 124.542 129.988 121.317 131.357 118.563C132.726 115.81 130.492 111.072 130.492 111.072L130.5 111.064Z" fill="#0021C5"/>
<path d="M129.404 132.978C129.404 132.978 124.426 129.953 121.352 130.953C118.279 131.954 113.565 135.003 114.837 136.124C116.11 137.244 120.536 138.133 123.593 137.788C126.651 137.436 129.404 132.978 129.404 132.978Z" fill="#0021C5"/>
<path d="M135.391 118.868C135.391 118.868 130.141 121.389 129.3 124.518C128.468 127.64 128.444 133.258 130.085 132.802C131.717 132.346 134.879 129.12 136.256 126.367C137.624 123.614 135.391 118.876 135.391 118.876V118.868Z" fill="#0021C5"/>
<path d="M192.642 89.8059C192.642 89.8059 192.162 86.8445 190.033 84.6595C187.904 82.4745 187.615 76.8238 191.889 76.6317C196.163 76.4396 196.892 84.8036 196.332 86.7965L195.771 88.7894C195.771 88.7894 199.021 81.554 202.118 78.7687C205.208 75.9834 210.066 80.1374 207.417 84.1072C204.775 88.0851 200.285 90.078 200.285 90.078C200.285 90.078 205.984 88.5173 208.897 89.3097C211.811 90.1021 212.411 95.3205 209.714 96.6491C207.017 97.9777 199.661 93.9839 197.996 93.8718C196.332 93.7598 193.666 92.9274 192.65 89.8059H192.642Z" fill="black"/>
<path d="M192.642 89.8059C192.642 89.8059 191.337 93.4396 192.81 94.7122C194.282 95.9928 197.988 93.8718 197.988 93.8718C197.988 93.8718 193.786 90.6303 192.642 89.8059Z" fill="#0021C5"/>
<path d="M120.472 141.734C120.472 141.734 108.754 151.011 107.05 160.527C105.345 170.044 106.073 171.268 104.857 174.438C103.64 177.607 86.0638 183.714 84.1109 198.361C82.158 213.008 94.852 223.012 94.3637 227.166C93.8755 231.312 87.0403 240.1 89.7296 259.63C92.4108 279.159 128.54 281.6 151.487 280.623C174.433 279.647 221.543 267.689 229.355 252.306C237.167 236.931 235.214 222.772 232.524 216.914C229.843 211.055 219.102 205.196 215.925 198.121C212.747 191.045 218.606 185.675 214.46 172.245C210.314 158.822 200.55 144.416 191.761 138.317C182.973 132.218 173.697 130.265 157.097 129.529C140.497 128.8 123.657 140.021 120.48 141.734H120.472Z" fill="black" stroke="black" stroke-linecap="round" stroke-linejoin="round"/>
<path d="M272.711 157.47C272.711 157.47 269.27 98.9302 265.484 87.2607C261.698 75.5913 257.92 61.0885 257.92 61.0885L279.971 62.249C279.971 62.249 287.534 91.8869 295.418 115.53C303.302 139.173 306.455 153.052 306.455 153.052C306.455 153.052 278.082 158.414 272.719 157.47H272.711Z" fill="white" stroke="black" stroke-linecap="round" stroke-linejoin="round"/>
<path d="M300.292 130.825L269.99 138.501C271.583 149.218 272.704 157.47 272.704 157.47C278.066 158.414 306.439 153.052 306.439 153.052C306.439 153.052 304.614 145.04 300.284 130.825H300.292Z" fill="#0021C5" stroke="black" stroke-linecap="round" stroke-linejoin="round"/>
<path d="M139.033 266.553C139.033 266.553 103.088 267.185 89.5297 275.693C75.9713 284.209 71.8734 301.865 71.2411 310.373C70.6088 318.889 70.9289 359.244 70.9289 359.244H246.227C246.227 359.244 248.436 333.392 250.013 319.522C251.59 305.651 251.902 302.178 251.902 302.178C251.902 302.178 294.154 259.926 302.662 244.799C311.178 229.664 315.9 212.952 316.22 208.854C316.532 204.756 310.961 157.87 308.656 152.099C307.392 148.946 303.614 147.369 295.418 148.946C287.222 150.522 274.921 151.155 272.087 153.988C269.246 156.829 272.399 202.227 272.399 202.227C272.399 202.227 268.614 202.539 269.878 204.116C271.143 205.692 271.143 207.581 271.143 207.581L249.701 234.378C249.701 234.378 239.928 236.899 229.203 242.894C218.486 248.881 207.761 259.606 207.761 259.606C207.761 259.606 199.781 261.799 196.524 261.494C193.258 261.182 139.033 266.545 139.033 266.545V266.553Z" fill="#0021C5" stroke="black" stroke-linecap="round" stroke-linejoin="round"/>
<path d="M294.522 211.055C296.058 211.175 297.619 211.183 299.196 211.071" stroke="black" stroke-linecap="round" stroke-linejoin="round"/>
<path d="M274.608 204.444C274.608 204.444 282.652 209.526 292.497 210.839" stroke="black" stroke-linecap="round" stroke-linejoin="round"/>
<path d="M273.344 208.862C273.344 208.862 272.399 215.801 286.902 219.579" stroke="black" stroke-linecap="round" stroke-linejoin="round"/>
<path d="M251.902 270.026V302.186" stroke="black" stroke-linecap="round" stroke-linejoin="round"/>
<path d="M254.807 280.351L254.111 285.474" stroke="black" stroke-linecap="round" stroke-linejoin="round"/>
<path d="M257.576 259.934L255.159 277.742" stroke="black" stroke-linecap="round" stroke-linejoin="round"/>
<path d="M199.877 274.437C199.877 274.437 196.724 285.474 184.43 302.498" stroke="black" stroke-linecap="round" stroke-linejoin="round"/>
<path d="M185.591 317.857C184.622 319.706 183.598 321.539 182.533 323.315" stroke="black" stroke-linecap="round" stroke-linejoin="round"/>
<path d="M196.732 291.148C196.732 291.148 192.994 302.986 187.031 315.032" stroke="black" stroke-linecap="round" stroke-linejoin="round"/>
<path d="M107.498 358.62L106.553 333.4" stroke="black" stroke-linecap="round" stroke-linejoin="round"/>
<path d="M246.851 58.6553C246.851 58.6553 242.201 61.8568 236.094 60.6883C229.988 59.5197 226.786 60.4001 228.531 63.8898C230.276 67.3794 237.255 68.54 241.033 69.4124C244.81 70.2848 254.407 68.2518 254.407 68.2518C254.407 68.2518 251.79 56.0381 246.843 58.6553H246.851Z" fill="white" stroke="black" stroke-linecap="round" stroke-linejoin="round"/>
<path d="M276.313 54.2613C276.313 54.2613 282.844 68.1398 283.853 72.4218C284.861 76.7038 285.366 79.9693 282.34 81.9863C279.323 83.9952 272.528 80.4735 269.006 78.2085C265.484 75.9434 262.779 72.4458 262.779 72.4458C262.779 72.4458 261.458 74.9349 255.92 73.4302C250.381 71.9175 248.148 56.7344 248.148 56.7344C248.148 56.7344 258.457 41.6393 276.313 54.2613Z" fill="white" stroke="black" stroke-linecap="round" stroke-linejoin="round"/>
<path d="M297.643 125.479C297.459 124.118 294.442 117.875 290.6 110.352L291.728 101.812C293.529 97.1774 294.562 91.2626 291.728 80.7137C288.895 70.1647 278.426 61.2165 266.516 59.8799C254.615 58.5353 238.735 59.1115 229.731 74.0305C221.279 88.0291 229.219 100.531 229.731 103.612C230.243 106.702 228.187 114.161 220.983 113.641C213.78 113.121 192.426 104.893 192.426 104.893L193.971 114.153C193.971 114.153 198.861 115.186 210.69 121.613C222.52 128.048 240.528 136.276 240.528 136.276C240.528 136.276 245.675 147.081 247.732 149.138C249.789 151.195 258.025 149.906 272.943 145.536C287.862 141.166 298.155 129.328 297.643 125.471V125.479ZM284.269 97.6896C277.21 83.8672 273.72 78.3926 273.72 78.3926L234.878 93.0555C234.878 93.0555 231.052 83.579 235.646 76.0795C240.536 68.1078 251.854 66.0428 260.346 66.0428C268.838 66.0428 281.443 73.2462 285.045 81.2179C288.647 89.1897 284.277 97.6816 284.277 97.6816L284.269 97.6896Z" fill="black" stroke="black" stroke-linecap="round" stroke-linejoin="round"/>
<path d="M234.878 93.0634L230.756 94.6082L234.358 105.925" stroke="black" stroke-linecap="round" stroke-linejoin="round"/>
<path d="M284.269 97.6896L287.35 104.125" stroke="black" stroke-linecap="round" stroke-linejoin="round"/>
<path d="M192.426 104.893C192.426 104.893 184.454 99.4905 181.621 98.458C178.787 97.4255 181.621 115.434 183.678 119.812C185.735 124.182 193.971 114.153 193.971 114.153L192.426 104.893Z" fill="white" stroke="black" stroke-linecap="round" stroke-linejoin="round"/>
<path d="M183.678 119.82C184.006 120.516 184.486 120.844 185.062 120.908C187.528 111.24 181.621 98.4659 181.621 98.4659C178.787 97.4334 181.621 115.442 183.678 119.82Z" fill="white" stroke="black" stroke-linecap="round" stroke-linejoin="round"/>
<path d="M257.16 43.4402C257.16 43.4402 253.327 42.2876 252.174 43.136C251.022 43.9844 240.353 50.6435 240 53.821C239.64 56.9985 242.682 64.7862 242.658 66.8672C242.626 68.9481 246.387 70.3808 247.508 68.62C248.628 66.8592 248.156 56.7184 248.156 56.7184L257.793 52.2843C257.793 52.2843 260.922 44.8568 257.168 43.4322L257.16 43.4402Z" fill="white" stroke="black" stroke-linecap="round" stroke-linejoin="round"/>
<path d="M265.004 45.6492C265.004 45.6492 262.851 41.1511 260.218 41.7594C257.585 42.3677 250.773 52.2283 249.069 55.5659C247.364 58.9034 249.645 64.1379 251.022 67.7076C252.398 71.2692 253.911 72.0776 255.776 70.5329C257.641 68.9882 257.385 60.5122 257.385 60.5122L264.292 50.3314C264.292 50.3314 266.733 50.3634 264.996 45.6412L265.004 45.6492Z" fill="white" stroke="black" stroke-linecap="round" stroke-linejoin="round"/>
<path d="M271.543 48.8107C271.543 48.8107 269.502 44.5447 267.005 45.121C264.508 45.6973 258.041 55.0536 256.424 58.2231C254.808 61.3926 256.969 66.3629 258.281 69.7485C259.594 73.1341 261.026 73.8945 262.795 72.4298C264.564 70.9651 264.324 62.9213 264.324 62.9213L270.879 53.2608C270.879 53.2608 273.192 53.2928 271.551 48.8107H271.543Z" fill="white" stroke="black" stroke-linecap="round" stroke-linejoin="round"/>
<path d="M276.313 54.2613C276.313 54.2613 274.624 50.7396 272.567 51.2118C270.503 51.6921 265.164 59.4157 263.827 62.0329C262.491 64.6502 264.276 68.7561 265.356 71.5494C266.437 74.3427 267.621 74.975 269.078 73.7664C270.535 72.5579 270.342 65.9147 270.342 65.9147L275.761 57.935C275.761 57.935 277.674 57.959 276.313 54.2613Z" fill="white" stroke="black" stroke-linecap="round" stroke-linejoin="round"/>
<path d="M175.234 103.476C175.234 103.476 166.542 102.956 164.733 106.174C162.924 109.399 170.135 107.67 175.234 103.476Z" fill="white" stroke="black" stroke-linecap="round" stroke-linejoin="round"/>
<path d="M155.008 120.428C155.008 120.428 146.628 122.789 145.972 126.431C145.324 130.073 151.567 126.071 155.008 120.428Z" fill="white" stroke="black" stroke-linecap="round" stroke-linejoin="round"/>
<path d="M170.319 120.132C170.319 120.132 161.939 122.493 161.283 126.135C160.635 129.777 166.878 125.775 170.319 120.132Z" fill="white" stroke="black" stroke-linecap="round" stroke-linejoin="round"/>
<path d="M160.515 108.223C160.515 108.223 151.823 108.791 150.43 112.216C149.037 115.642 155.977 113.033 160.515 108.223Z" fill="white" stroke="black" stroke-linecap="round" stroke-linejoin="round"/>
<path d="M169.215 111.824C169.215 111.824 160.523 112.393 159.13 115.818C157.737 119.244 164.677 116.635 169.215 111.824Z" fill="white" stroke="black" stroke-linecap="round" stroke-linejoin="round"/>
<path d="M182.117 110.92C182.117 110.92 173.425 111.488 172.032 114.914C170.639 118.339 177.579 115.73 182.117 110.92Z" fill="white" stroke="black" stroke-linecap="round" stroke-linejoin="round"/>
<path d="M145.532 115.458C145.532 115.458 137.08 117.563 136.32 121.181C135.559 124.798 141.922 120.997 145.532 115.458Z" fill="white" stroke="black" stroke-linecap="round" stroke-linejoin="round"/>
<path d="M147.269 246.647C147.269 246.647 137.928 245.583 136.439 247.288C134.951 248.985 136.656 260.878 136.439 263.423C136.223 265.969 133.894 270.643 136.015 273.828C138.136 277.014 150.662 283.385 167.222 283.169C183.782 282.953 194.611 275.101 197.156 270.643C199.701 266.185 196.516 262.575 196.516 261.51C196.516 260.446 197.364 252.378 195.243 248.56C193.122 244.743 179.748 245.375 179.748 245.375L147.261 246.647H147.269Z" fill="#0021C5" stroke="black" stroke-linecap="round" stroke-linejoin="round"/>
<path d="M145.644 251.218C145.644 251.218 138.136 249.193 139.409 248.768" stroke="black" stroke-linecap="round" stroke-linejoin="round"/>
<path d="M185.487 251.53C185.487 251.53 192.49 249.833 192.49 248.985C192.49 248.136 189.52 248.344 189.52 248.344" stroke="black" stroke-linecap="round" stroke-linejoin="round"/>
<path d="M160.899 269.066C167.038 268.058 176.994 265.841 182.725 261.51" stroke="black" stroke-linecap="round" stroke-linejoin="round"/>
<path d="M155.544 269.786C155.544 269.786 156.641 269.682 158.434 269.434" stroke="black" stroke-linecap="round" stroke-linejoin="round"/>
<path d="M187.815 262.567C187.815 262.567 177.41 267.241 173.801 268.514" stroke="black" stroke-linecap="round" stroke-linejoin="round"/>
<path d="M144.931 233.481L144.715 250.257C144.715 250.257 143.867 251.954 159.362 253.018C174.857 254.083 185.478 251.53 185.478 251.53L184.63 237.515L144.931 233.481Z" fill="white" stroke="black" stroke-linecap="round" stroke-linejoin="round"/>
<path d="M198.22 194.631C198.22 194.631 199.493 189.749 202.47 190.813C205.44 191.878 207.145 199.521 205.232 204.612C203.319 209.71 198.653 215.225 198.653 215.225C198.653 215.225 198.437 200.786 198.228 194.631H198.22Z" fill="white" stroke="black" stroke-linecap="round" stroke-linejoin="round"/>
<path d="M177.627 160.447C177.627 160.447 171.472 167.45 161.275 169.363C151.086 171.276 147.685 168.091 142.378 170.852C137.072 173.613 135.159 179.344 135.375 184.018C135.591 188.692 136.223 195.271 132.614 198.241L129.004 201.21C129.004 201.21 127.307 194.415 124.122 193.359C120.936 192.294 115.206 195.904 115.63 203.547C116.054 211.191 122.001 218.618 124.546 219.683C127.091 220.747 131.341 221.172 131.341 221.172C131.341 221.172 140.681 234.122 148.325 239.644C155.969 245.167 170.407 249.833 177.627 246.223C184.846 242.614 195.883 233.697 198.437 224.989C200.982 216.281 198.22 204.604 198.22 199.722C198.22 194.839 198.004 185.987 198.004 185.987C198.004 185.987 186.767 180.088 183.397 175.598C179.115 169.892 177.627 160.447 177.627 160.447Z" fill="white" stroke="black" stroke-linecap="round" stroke-linejoin="round"/>
<path d="M169.775 187.196C169.775 187.196 168.927 195.904 169.775 199.513C170.624 203.123 176.354 208.646 175.298 211.831C174.241 215.017 170.415 216.289 167.654 215.649L164.893 215.009" stroke="black" stroke-linecap="round" stroke-linejoin="round"/>
<path d="M155.12 220.955C155.12 220.955 161.067 226.686 169.767 225.63C178.475 224.565 180.804 219.683 180.804 219.683" stroke="black" stroke-linecap="round" stroke-linejoin="round"/>
<path d="M157.457 197.601C157.457 197.601 150.662 203.331 143.235 198.449" stroke="black" stroke-linecap="round" stroke-linejoin="round"/>
<path d="M189.096 194.415C189.096 194.415 182.301 200.146 174.873 195.263" stroke="black" stroke-linecap="round" stroke-linejoin="round"/>
<path d="M140.257 189.957C140.257 189.957 142.378 185.283 147.477 183.378C152.575 181.465 158.306 182.529 158.73 183.594C159.154 184.658 157.882 184.867 153.848 185.291C149.814 185.715 143.019 186.779 140.257 189.965V189.957Z" fill="black" stroke="black" stroke-linecap="round" stroke-linejoin="round"/>
<path d="M191.137 185.467C191.137 185.467 188.032 181.385 182.637 180.649C177.243 179.912 171.888 182.225 171.712 183.354C171.536 184.482 172.825 184.41 176.851 183.93C180.876 183.45 187.736 182.978 191.137 185.475V185.467Z" fill="black" stroke="black" stroke-linecap="round" stroke-linejoin="round"/>
<path d="M94.2037 224.245C94.2037 224.245 96.7489 227.294 92.9311 231.616C89.1213 235.938 74.3784 242.542 73.3619 255.252C72.3455 267.961 77.4278 276.341 84.5432 282.953C91.6585 289.564 95.9805 288.547 91.9146 295.15C87.8487 301.761 84.7993 317.769 93.1872 326.405C101.575 335.049 117.583 336.065 124.954 335.049C132.326 334.032 138.681 328.694 137.912 323.868C137.152 319.041 128.004 317.257 130.036 311.158C132.069 305.059 143.763 295.398 139.441 282.184C135.119 268.97 131.813 266.681 133.598 259.061C135.375 251.434 137.408 249.401 135.631 243.558" fill="black"/>
<path d="M94.2037 224.245C94.2037 224.245 96.7489 227.294 92.9311 231.616C89.1213 235.938 74.3784 242.542 73.3619 255.252C72.3455 267.961 77.4278 276.341 84.5432 282.953C91.6585 289.564 95.9805 288.547 91.9146 295.15C87.8487 301.761 84.7993 317.769 93.1872 326.405C101.575 335.049 117.583 336.065 124.954 335.049C132.326 334.032 138.681 328.694 137.912 323.868C137.152 319.041 128.004 317.257 130.036 311.158C132.069 305.059 143.763 295.398 139.441 282.184C135.119 268.97 131.813 266.681 133.598 259.061C135.375 251.434 137.408 249.401 135.631 243.558" stroke="black" stroke-linecap="round" stroke-linejoin="round"/>
</svg>
