<svg width="374" height="319" viewBox="0 0 374 319" fill="none" xmlns="http://www.w3.org/2000/svg">
<g id="vid">
<g id="Group">
<path id="Vector" d="M318.763 14.6396C276.365 -10.4599 219.958 -1.6245 180.224 28.5064C151.801 50.0531 125.431 75.167 92.9961 90.0028C68.076 101.401 39.5959 106.877 21.0063 128.517C-8.10541 162.394 -4.22241 210.153 15.9965 247.454C39.4524 290.734 82.0218 310.185 129.479 316.372C176.757 322.538 226.554 315.453 268.04 291.115C323.313 258.687 352.942 196.703 363.471 135.371C371.409 89.1343 361.698 40.0621 318.763 14.6468V14.6396Z" fill="#0021C5"/>
<path id="Vector_2" opacity="0.7" d="M318.763 14.6396C276.365 -10.4599 219.958 -1.6245 180.224 28.5064C151.801 50.0531 125.431 75.167 92.9961 90.0028C68.076 101.401 39.5959 106.877 21.0063 128.517C-8.10541 162.394 -4.22241 210.153 15.9965 247.454C39.4524 290.734 82.0218 310.185 129.479 316.372C176.757 322.538 226.554 315.453 268.04 291.115C323.313 258.687 352.942 196.703 363.471 135.371C371.409 89.1343 361.698 40.0621 318.763 14.6468V14.6396Z" fill="white"/>
</g>
<g id="Group_2">
<path id="Vector_3" d="M373.484 48.6033V283.779C373.484 289.852 368.56 294.775 362.488 294.775H12.1135C6.0414 294.775 1.11768 289.852 1.11768 283.779V48.6033C1.11768 48.4454 1.11768 48.2875 1.13203 48.1367C1.36171 42.4666 5.89068 37.9017 11.5537 37.6146C11.7403 37.6146 11.9341 37.6003 12.1207 37.6003H362.495C362.682 37.6003 362.875 37.6003 363.062 37.6146C368.718 37.9017 373.247 42.4666 373.484 48.1367C373.484 48.2875 373.498 48.4454 373.498 48.6033H373.484Z" fill="white" stroke="black" stroke-linecap="round" stroke-linejoin="round"/>
<path id="Vector_4" d="M373.469 48.1441H1.125C1.35468 42.4739 5.88365 37.909 11.5467 37.6219C11.7333 37.6219 11.9271 37.6076 12.1137 37.6076H362.488C362.674 37.6076 362.868 37.6076 363.055 37.6219C368.711 37.909 373.24 42.4739 373.477 48.1441H373.469Z" fill="#3CE300" stroke="black" stroke-miterlimit="10"/>
<path id="Vector_5" d="M20.181 42.8757C20.181 43.8303 19.4058 44.5983 18.4584 44.5983C17.511 44.5983 16.7358 43.8231 16.7358 42.8757C16.7358 41.9283 17.511 41.1531 18.4584 41.1531C19.4058 41.1531 20.181 41.9283 20.181 42.8757Z" fill="black"/>
<path id="Vector_6" d="M26.9708 42.8757C26.9708 43.8303 26.1956 44.5983 25.2482 44.5983C24.3008 44.5983 23.5256 43.8231 23.5256 42.8757C23.5256 41.9283 24.3008 41.1531 25.2482 41.1531C26.1956 41.1531 26.9708 41.9283 26.9708 42.8757Z" fill="black"/>
<path id="Vector_7" d="M33.7606 42.8757C33.7606 43.8303 32.9854 44.5983 32.038 44.5983C31.0906 44.5983 30.3154 43.8231 30.3154 42.8757C30.3154 41.9283 31.0906 41.1531 32.038 41.1531C32.9854 41.1531 33.7606 41.9283 33.7606 42.8757Z" fill="black"/>
</g>
<g id="Group_3">
<path id="Vector_8" d="M264.961 84.4547V225.24C264.961 231.083 260.216 235.827 254.374 235.827H50.0606C44.2038 235.827 39.4739 231.083 39.4739 225.24V84.4547C39.4739 83.8876 39.5169 83.3421 39.6031 82.811C40.3998 77.7509 44.7708 73.8679 50.0606 73.8679H254.374C259.649 73.8679 264.035 77.7509 264.831 82.811C264.917 83.3493 264.961 83.8948 264.961 84.4547Z" fill="white" stroke="black" stroke-linecap="round" stroke-linejoin="round"/>
<path id="Vector_9" d="M115.885 56.9076H43.3281V64.5947H115.885V56.9076Z" fill="black"/>
</g>
<g id="Group_4">
<g id="Group_5">
<g id="Group_6">
<path id="Vector_10" d="M86.7016 165.122C86.7016 165.122 90.2687 179.161 96.4844 187.824C104.932 195.698 110.272 196.164 116.718 196.164C123.163 196.164 126.278 192.92 126.278 192.92L127.39 185.276L124.053 173.462C124.053 173.462 112.268 160.026 108.04 156.552C103.813 153.078 94.6972 142.657 92.0272 129.22C89.3572 115.784 85.1369 109.533 85.1369 109.533C85.1369 109.533 83.644 96.3189 81.6773 96.484C79.7107 96.6563 77.579 103.999 78.0743 108.693C78.0743 108.693 72.9137 104.939 71.3562 103.482C69.7987 102.032 63.7337 95.027 62.6715 95.9672C61.6092 96.9075 65.2123 106.382 70.459 110.825C70.459 110.825 66.4468 110.229 63.906 107.666C61.3652 105.104 56.5276 99.8144 54.3169 100.755C52.1063 101.695 52.5943 103.827 52.5943 103.827C52.5943 103.827 50.2186 104.508 50.9579 108.183C50.9579 108.183 48.7472 111.427 51.8622 116.035C54.9772 120.643 61.0422 125.337 66.4468 127.9C71.8586 130.462 74.0693 131.998 76.0359 136.52C78.0025 141.042 86.7087 165.115 86.7087 165.115L86.7016 165.122Z" fill="white"/>
<path id="Vector_11" opacity="0.2" d="M127.39 185.276L126.673 190.15L126.271 192.92C126.271 192.92 123.163 196.165 116.718 196.165C110.272 196.165 104.925 195.698 96.4771 187.817C90.2687 179.154 86.6943 165.122 86.6943 165.122C86.6943 165.122 77.988 141.049 76.0286 136.527C74.0548 132.005 71.8442 130.462 66.4395 127.907C61.0277 125.338 54.97 120.643 51.855 116.043C49.7376 112.921 50.075 110.416 50.5128 109.138C50.7209 108.521 50.9506 108.183 50.9506 108.183C50.2185 104.516 52.5871 103.827 52.5871 103.827C52.5871 103.827 52.099 101.695 54.3097 100.762C56.5203 99.8217 61.3579 105.111 63.8916 107.667C66.4324 110.236 70.4517 110.832 70.4517 110.832C65.205 106.389 61.6019 96.9077 62.657 95.9746C63.7265 95.0344 69.7914 102.04 71.3417 103.489C72.9064 104.939 78.067 108.7 78.067 108.7C77.5718 104.006 79.7035 96.6636 81.6773 96.4842C83.6367 96.3191 85.1368 109.533 85.1368 109.533C85.1368 109.533 89.3571 115.784 92.02 129.221C94.6971 142.657 103.812 153.086 108.033 156.559C112.26 160.033 124.046 173.469 124.046 173.469L127.376 185.284L127.39 185.276Z" fill="black"/>
</g>
<path id="Vector_12" d="M105.772 153.344C105.772 153.344 114.471 141.128 115.914 137.561C117.364 133.993 123.953 123.012 131.065 122.186C138.178 121.361 144.372 118.483 144.372 118.483L182.183 120.679C182.183 120.679 190.164 123.665 197.414 126.421C204.247 129.019 211.855 133.369 212.092 140.173C212.3 146.123 223.647 167.806 231.593 174.625L200.414 184.121C200.414 184.121 199.323 193.179 194.507 196.796C194.507 196.796 205.065 221.479 200.715 236.164L114.859 235.848C114.859 235.848 111.485 202.186 126.379 190.379C126.379 190.379 122.503 181.766 122.237 174.216C122.237 174.216 119.603 167.081 105.765 153.351L105.772 153.344Z" fill="#0021C5"/>
<path id="Vector_13" opacity="0.1" d="M126.673 190.15L123.371 193.652C123.371 193.652 122.007 195.791 116.251 195.978C109.806 196.186 104.925 195.691 96.4772 187.817C90.2687 179.154 86.6943 165.122 86.6943 165.122C86.6943 165.122 77.9881 141.049 76.0286 136.527C74.0548 132.005 71.8442 130.462 66.4395 127.907C61.0277 125.337 54.97 120.643 51.855 116.043C49.7376 112.92 50.075 110.415 50.5128 109.138C53.0967 110.566 56.1543 113.1 58.3936 114.743C62.8436 117.421 65.9371 119.509 70.4733 121.978C79.4738 126.888 84.1894 137.36 87.6058 147.329C91.0223 157.298 94.0655 168 101.458 175.264C105.679 179.419 111.069 182.14 116.682 183.69C120.062 184.616 123.909 185.384 125.876 188.391C126.235 188.944 126.508 189.54 126.687 190.157L126.673 190.15Z" fill="black"/>
<path id="Vector_14" d="M194.507 196.782C195.131 197.004 206.142 221.838 200.715 236.15L152.734 235.834L114.119 235.36C114.119 235.36 111.823 202.079 126.709 190.286C126.709 190.286 122.402 181.644 122.137 174.094C122.137 174.094 119.625 167.605 105.779 153.882C105.779 153.882 114.342 140.984 115.792 137.41C117.242 133.835 123.45 123.263 130.563 122.438C137.676 121.612 143.619 118.009 143.619 118.009L181.437 120.213C181.437 120.213 184.731 122.208 189.174 123.844C191.514 124.699 194.048 125.187 196.545 126.141C206.048 129.744 210.548 133.8 211.345 139.707C212.135 145.614 222.901 167.34 230.846 174.158L199.359 184.996C199.359 184.996 198.06 193.903 194.507 196.796V196.782Z" fill="#3CE300"/>
<path id="Vector_15" opacity="0.1" d="M194.507 196.782C194.507 196.782 205.854 218.199 200.715 236.15L152.734 235.834C151.779 232.834 151.779 229.303 152.038 226.166C151.069 224.329 151.794 222.075 151.865 219.986C151.987 216.749 150.502 213.699 148.872 210.95C147.236 208.194 145.377 205.495 144.595 202.366C143.812 199.229 144.394 195.461 146.899 193.537C149.691 191.406 153.559 192.296 156.94 193.092C162.495 194.399 168.266 195.174 173.864 194.126C179.456 193.071 184.903 190.006 187.925 184.989C188.614 183.869 189.167 182.635 189.382 181.329C189.64 179.721 189.382 178.084 189.109 176.477C188.291 171.711 187.293 166.902 187.76 162.086C188.076 158.921 189.009 155.856 189.418 152.698C190.294 145.98 188.664 138.946 184.939 133.39C186.949 130.742 187.466 126.723 189.274 123.966C191.614 124.821 194.263 125.703 196.854 126.371C204.368 128.287 211.395 133.907 212.185 139.814C212.974 145.721 221.099 164.835 231.14 174.524L200.442 183.805C200.442 183.805 199.603 193.214 194.5 196.796L194.507 196.782Z" fill="black"/>
<g id="Group_7">
<path id="Vector_16" d="M225.477 174.496C225.477 174.496 227.702 171.768 229.798 172.314C229.798 172.314 234.772 178.996 236.861 181.443C238.555 183.432 240.084 188.018 239.624 192.009C239.445 193.58 238.576 194.994 237.263 195.863C234.578 197.636 229.138 200.722 224.171 200.528C217.238 200.255 205.589 194.801 201.534 186.216C197.478 177.632 196.56 166.45 196.56 166.45C196.56 166.45 191.198 160.586 191.98 154.865C192.763 149.138 196.337 141.343 197.17 139.111C198.002 136.879 199.043 133.742 200.486 134.151C201.928 134.56 203.83 139.613 200.952 148.061C200.952 148.061 203.364 148.054 205.194 145.054C207.024 142.054 212.68 128.739 216.226 132.874C216.226 132.874 219.484 130.613 220.855 132.823C220.855 132.823 223.31 131.201 223.389 133.333C223.497 136.477 222.463 143.999 222.463 143.999C222.463 143.999 225.061 142.046 225.061 146.41C225.061 150.774 223.554 158.662 217.927 163.435C217.927 163.435 220.898 170.684 225.477 174.503V174.496Z" fill="white"/>
<path id="Vector_17" opacity="0.2" d="M239.624 192.009C239.445 193.595 238.562 195.009 237.227 195.884C234.7 197.542 229.784 200.342 225.104 200.521C224.788 200.528 224.472 200.528 224.171 200.521C217.238 200.255 205.589 194.793 201.526 186.216C197.471 177.632 196.552 166.45 196.552 166.45C196.552 166.45 191.191 160.586 191.973 154.858C192.763 149.145 196.337 141.343 197.162 139.104C197.988 136.871 199.036 133.735 200.478 134.151C201.914 134.56 203.83 139.606 200.945 148.061C200.945 148.061 203.356 148.054 205.194 145.047C207.024 142.054 212.68 128.732 216.226 132.874C216.226 132.874 219.484 130.613 220.855 132.823C220.855 132.823 223.303 131.194 223.382 133.326C223.489 136.096 222.685 142.276 222.499 143.697C222.47 143.898 222.463 143.991 222.463 143.991C222.463 143.991 225.061 142.039 225.061 146.403C225.061 150.767 223.554 158.655 217.927 163.421C217.927 163.421 220.898 170.677 225.477 174.496C225.477 174.496 227.049 172.22 229.202 172.242C229.202 172.242 234.765 178.989 236.861 181.443C238.562 183.432 240.083 188.018 239.624 192.009Z" fill="black"/>
</g>
<g id="Group_8">
<path id="Vector_18" d="M175.149 87.06L183.224 78.2461L182.836 67.0349L175.723 61.8313L139.585 48.6176L124.397 74.2483C124.397 74.2483 129.587 105.685 134.008 108.693C138.429 111.693 138.042 120.708 138.042 120.708C138.042 120.708 143.841 143.109 164.024 144.709C182.707 145.944 189.081 123.916 189.081 123.916C189.081 123.916 177.999 119.99 175.695 113.782C173.391 107.573 175.142 87.0672 175.142 87.0672L175.149 87.06Z" fill="white"/>
<g id="Group_9">
<path id="Vector_19" opacity="0.2" d="M189.253 123.938C189.253 123.938 187.975 126.78 186.188 130.455V130.476C183.073 136.836 176.57 145.391 164.146 144.767C143.956 143.166 138.049 120.457 138.049 120.457C138.049 120.457 138.437 111.449 134.023 108.442C129.594 105.434 124.405 74.0042 124.405 74.0042L139.599 48.3736L154.722 53.9002L175.738 61.5873L182.851 66.7837L183.231 78.0093L175.156 86.8232C175.156 86.8232 177.626 106.676 176.7 113.258C175.853 119.265 189.26 123.945 189.26 123.945L189.253 123.938Z" fill="black"/>
<g id="Clip path group">
<mask id="mask0_40_1054" style="mask-type:luminance" maskUnits="userSpaceOnUse" x="124" y="48" width="66" height="97">
<g id="clippath">
<path id="Vector_20" d="M189.253 123.938C189.253 123.938 187.975 126.78 186.188 130.455V130.476C183.073 136.836 176.57 145.391 164.146 144.767C143.956 143.166 138.049 120.457 138.049 120.457C138.049 120.457 138.437 111.449 134.023 108.442C129.594 105.434 124.405 74.0042 124.405 74.0042L139.599 48.3736L154.722 53.9002L175.738 61.5873L182.851 66.7837L183.231 78.0093L175.156 86.8232C175.156 86.8232 177.626 106.676 176.7 113.258C175.853 119.265 189.26 123.945 189.26 123.945L189.253 123.938Z" fill="white"/>
</g>
</mask>
<g mask="url(#mask0_40_1054)">
<g id="Group_10">
<path id="Vector_21" opacity="0.1" d="M189.138 123.981C189.138 123.981 187.983 126.78 186.188 130.448V130.469L185.485 131.847C173.082 122.875 167.276 109.045 166.759 93.2757C166.701 91.6751 168.079 71.8295 168.725 71.8366C150.093 71.5567 138.953 53.2973 138.953 53.2973L154.715 53.8859L175.731 61.5729L182.843 66.7694L183.224 77.9949L175.149 86.8088C175.149 86.8088 175.3 106.741 176.692 113.243C177.948 119.136 189.138 123.981 189.138 123.981Z" fill="black"/>
</g>
</g>
</g>
</g>
</g>
<path id="Vector_22" d="M169.702 73.3224C169.702 73.3224 172.329 66.2383 177.726 67.602C183.123 68.9657 180.633 83.4354 175.824 84.7991C171.015 86.1628 170.721 81.9138 170.721 81.9138" stroke="black" stroke-width="0.98" stroke-linecap="round" stroke-linejoin="round"/>
<path id="Vector_23" d="M144.609 74.6358C144.609 74.4923 144.602 74.3487 144.595 74.2052C144.681 75.8345 145.047 77.4494 145.061 79.0787C145.076 80.7151 144.681 82.4593 143.525 83.5574C142.757 84.2895 141.63 84.8206 141.473 85.8829C141.386 86.4643 141.638 87.0313 141.903 87.5481C142.327 88.3663 142.829 89.163 143.525 89.7372C144.222 90.3185 145.14 90.6559 146.016 90.4765" stroke="black" stroke-width="0.98" stroke-linecap="round" stroke-linejoin="round"/>
<path id="Vector_24" d="M144.257 97.0869C144.257 97.0869 155.54 94.6322 158.11 86.6222C158.11 86.6222 159.926 95.1346 154.815 98.6803C149.081 102.664 144.25 97.0869 144.25 97.0869H144.257Z" fill="white" stroke="black" stroke-width="0.98" stroke-linecap="round" stroke-linejoin="round"/>
<path id="Vector_25" d="M127.886 65.9153C129.178 76.1503 130.168 86.3423 133.276 96.2256C135.408 103.015 140.059 109.698 147.767 109.253C157.076 108.707 164.211 107.085 170.319 99.5703" stroke="black" stroke-width="0.98" stroke-linecap="round" stroke-linejoin="round"/>
<path id="Vector_26" d="M149.368 68.8867C149.368 68.8867 152.741 65.5133 157.048 68.7073" stroke="black" stroke-width="0.98" stroke-linecap="round" stroke-linejoin="round"/>
<path id="Vector_27" d="M139.93 70.0925C138.236 69.3676 135.386 68.9872 132.774 72.6621" stroke="black" stroke-width="0.98" stroke-linecap="round" stroke-linejoin="round"/>
<path id="Vector_28" d="M150.035 109.045C150.035 109.045 150.401 119.732 147.143 121.433C143.884 123.134 131.015 119.165 124.125 125.962C117.242 132.759 109.504 150.789 105.693 153.43" stroke="black" stroke-width="0.98" stroke-linecap="round" stroke-linejoin="round"/>
<path id="Vector_29" d="M154.363 76.4374C154.363 77.9662 153.811 79.2079 153.129 79.2079C152.447 79.2079 151.894 77.9662 151.894 76.4374C151.894 74.9086 152.447 73.6597 153.129 73.6597C153.811 73.6597 154.363 74.9014 154.363 76.4374Z" fill="black"/>
<path id="Vector_30" d="M138.58 77.9519C138.58 79.4807 138.027 80.7224 137.353 80.7224C136.678 80.7224 136.118 79.4807 136.118 77.9519C136.118 76.4231 136.671 75.1742 137.353 75.1742C138.035 75.1742 138.58 76.4159 138.58 77.9519Z" fill="black"/>
<path id="Vector_31" d="M128.783 70.1858C128.783 70.1858 133.714 68.8939 139.118 53.3045C139.118 53.3045 154.428 73.1071 170.886 70.5878C170.886 70.5878 175.443 65.0468 179.449 69.1666C182.793 72.6118 179.463 83.5431 176.656 84.5192C173.843 85.4953 172.917 84.5766 172.917 84.5766C172.917 84.5766 165.043 99.599 172.852 112.282C180.662 124.971 197.213 118.138 202.517 108.377C207.828 98.6157 202.675 90.8138 202.675 90.8138C202.675 90.8138 206.421 92.4431 206.579 97.4817C206.579 97.4817 209.701 91.955 205.015 84.146C200.27 76.2436 195.253 68.5278 190.523 60.6183C185.951 52.9671 182.535 42.8182 174.065 38.7343C164.139 33.9469 151.758 35.2676 141.846 39.3013C133.671 42.6316 129.465 50.6129 126.192 58.745C123.866 64.5157 122.546 70.6739 120.091 76.3943C117.945 81.3898 114.112 85.3374 111.93 90.3616C106.073 103.855 111.492 119.61 123.981 125.962C123.981 125.962 125.079 123.177 130.233 122.689C135.386 122.201 136.477 121.713 141.322 121.878C146.16 122.043 147.724 121.555 148.815 118.626C149.906 115.698 150.251 109.332 150.251 109.332C150.251 109.332 143.927 110.688 139.434 106.762C134.905 101.393 133.298 98.5511 132.199 91.8832C131.108 85.2154 128.79 70.1858 128.79 70.1858H128.783Z" fill="black"/>
<path id="Vector_32" d="M150.243 109.332C150.243 109.332 149.31 115.461 156 113.688C162.682 111.908 169.924 100.453 169.924 100.453C169.924 100.453 161.849 108.399 150.243 109.332Z" fill="black"/>
<path id="Vector_33" d="M114.435 235.719C114.435 235.719 109.813 205.761 126.601 190.186" stroke="black" stroke-width="0.98" stroke-linecap="round" stroke-linejoin="round"/>
<path id="Vector_34" d="M127.484 191.176C121.577 182.018 119.373 166.256 127.943 158.002" stroke="black" stroke-width="0.98" stroke-linecap="round" stroke-linejoin="round"/>
<path id="Vector_35" d="M170.627 103.245C170.627 103.245 172.099 119.071 190.961 124.426C206.113 128.732 209.565 133.627 210.527 135.544" stroke="black" stroke-width="0.98" stroke-linecap="round" stroke-linejoin="round"/>
<path id="Vector_36" d="M138.422 121.483C138.422 121.483 146.095 144.752 166.544 145.061C181.473 145.283 189.174 124.167 189.174 124.167" stroke="black" stroke-width="0.98" stroke-linecap="round" stroke-linejoin="round"/>
<path id="Vector_37" d="M140.64 193.25C151.313 197.83 163.156 198.196 174.697 198.49" stroke="black" stroke-width="0.98" stroke-linecap="round" stroke-linejoin="round"/>
<path id="Vector_38" d="M122.826 194.348C121.778 195.145 119.66 195.518 119.158 195.604C109.712 197.191 100.884 194.076 95.1063 186.001C91.8836 181.508 90.2902 176.434 88.5892 171.158C84.8282 159.473 80.8806 147.925 76.4162 136.527C76.4162 136.527 75.1243 133.599 73.739 132.45C71.2915 130.419 66.5616 127.074 62.937 126.034C57.7333 124.541 48.4098 113.143 50.0247 109.963C51.6397 106.784 60.066 117.622 63.6547 118.555" stroke="black" stroke-width="0.98" stroke-linecap="round" stroke-linejoin="round"/>
<path id="Vector_39" d="M125.108 151.363C125.108 151.363 124.197 141.666 127.484 133.111" stroke="black" stroke-width="0.98" stroke-linecap="round" stroke-linejoin="round"/>
<g id="Group_11" opacity="0.42">
<path id="Vector_40" d="M148.32 46.0625C148.32 46.0625 156.782 60.7547 171.589 62.2189" stroke="white" stroke-width="0.98" stroke-linecap="round" stroke-linejoin="round"/>
<path id="Vector_41" d="M180.066 85.7394C178.3 95.4289 179.743 105.714 184.092 114.471" stroke="white" stroke-width="0.98" stroke-linecap="round" stroke-linejoin="round"/>
<path id="Vector_42" d="M176.549 56.2975C181.358 60.6829 186.016 65.3626 188.32 71.4922C190.459 77.1839 190.301 83.4857 190.459 89.6009C190.617 95.716 191.22 102.14 194.564 107.164" stroke="white" stroke-width="0.98" stroke-linecap="round" stroke-linejoin="round"/>
<path id="Vector_43" d="M161.117 41.5263C164.483 45.0289 167.943 48.4238 171.496 51.7111" stroke="white" stroke-width="0.98" stroke-linecap="round" stroke-linejoin="round"/>
<path id="Vector_44" d="M126.292 81.7057C121.369 90.4406 120.199 101.35 123.012 111.033" stroke="white" stroke-width="0.98" stroke-linecap="round" stroke-linejoin="round"/>
</g>
<path id="Vector_45" d="M177.468 145.283C178.838 144.264 180.152 142.944 181.351 141.271" stroke="black" stroke-width="0.98" stroke-linecap="round" stroke-linejoin="round"/>
<path id="Vector_46" d="M159.947 147.386C159.947 147.386 166.852 150.1 173.75 147.365" stroke="black" stroke-width="0.98" stroke-linecap="round" stroke-linejoin="round"/>
<path id="Vector_47" d="M210.929 152.073C210.929 152.073 205.725 148.398 200.184 149.274C200.184 149.274 204.548 135.278 201.189 134.23C198.899 133.512 197.737 137.561 197.177 139.111C196.086 142.133 194.758 144.975 193.588 147.968C191.456 153.444 191.822 161.225 196.315 165.366" stroke="black" stroke-width="0.98" stroke-linecap="round" stroke-linejoin="round"/>
<path id="Vector_48" d="M216.936 164.11C219.362 161.949 221.86 159.681 223.159 156.645C223.877 154.973 224.185 153.15 224.451 151.341C224.717 149.561 224.939 147.781 225.133 145.987C225.205 145.341 225.233 144.587 224.781 144.135C224.394 143.74 223.755 143.726 223.26 143.956C222.764 144.185 222.391 144.623 222.054 145.068C221.121 146.303 220.381 147.695 219.872 149.181C219.348 150.724 219.061 152.382 218.221 153.767C218.149 153.889 218.07 154.004 217.991 154.119" stroke="black" stroke-width="0.98" stroke-linecap="round" stroke-linejoin="round"/>
<path id="Vector_49" d="M221.566 145.563C222.987 141.429 223.411 136.692 223.403 132.299C222.434 132.098 221.43 132.572 220.726 133.297C220.023 134.022 219.571 134.962 219.154 135.888C217.159 140.302 215.515 144.932 213.197 149.145" stroke="black" stroke-width="0.98" stroke-linecap="round" stroke-linejoin="round"/>
<path id="Vector_50" d="M221.085 132.579C220.697 131.51 219.291 131.187 218.286 131.654C217.281 132.12 216.613 133.111 216.054 134.094C213.599 138.357 212.128 143.159 209.852 147.523" stroke="black" stroke-width="0.98" stroke-linecap="round" stroke-linejoin="round"/>
<path id="Vector_51" d="M216.29 133.563C216.491 132.543 215.321 131.689 214.338 131.862C213.355 132.034 212.608 132.859 211.998 133.678C209.996 136.405 208.733 139.642 206.967 142.542C205.201 145.441 203.637 147.803 200.407 148.485" stroke="black" stroke-width="0.98" stroke-linecap="round" stroke-linejoin="round"/>
<path id="Vector_52" d="M196.28 164.67C196.28 164.67 198.218 176.161 199.955 182.412C201.649 188.492 215.429 208.495 237.019 196.416C238.404 195.64 239.359 194.284 239.653 192.719C240.105 190.279 240.12 186.417 237.32 182.405C232.677 175.752 222.994 166.27 220.87 160.227" stroke="black" stroke-width="0.98" stroke-linecap="round" stroke-linejoin="round"/>
<path id="Vector_53" d="M217.697 163.708C218.666 166.313 220.094 168.732 221.896 170.799C224.085 173.319 226.776 175.292 229.116 177.654C231.449 180.022 233.495 182.958 233.818 186.338" stroke="black" stroke-width="0.98" stroke-linecap="round" stroke-linejoin="round"/>
<path id="Vector_54" d="M200.249 183.891C200.249 183.891 199.732 195.533 190.896 199.05" stroke="black" stroke-width="0.98" stroke-linecap="round" stroke-linejoin="round"/>
<path id="Vector_55" d="M194.507 196.782C194.507 196.782 205.912 216.383 200.715 236.15" stroke="black" stroke-width="0.98" stroke-linecap="round" stroke-linejoin="round"/>
<path id="Vector_56" d="M51.1661 108.915C51.1661 108.915 49.8957 105.427 51.8695 104.121C53.8433 102.815 63.8845 113.652 66.576 113.466" stroke="black" stroke-width="0.98" stroke-linecap="round" stroke-linejoin="round"/>
<path id="Vector_57" d="M52.7091 104.106C52.2211 103.059 52.8742 101.702 53.8862 101.214C54.9054 100.726 56.1256 100.956 57.1089 101.523C58.085 102.09 58.8746 102.951 59.6569 103.783C63.0518 107.394 66.4755 110.487 71.2987 111.004" stroke="black" stroke-width="0.98" stroke-linecap="round" stroke-linejoin="round"/>
<path id="Vector_58" d="M70.8108 110.803C70.8108 110.803 61.6309 101.91 62.2696 97.0438C62.9156 92.1775 69.0164 104.257 74.9809 106.604" stroke="black" stroke-width="0.98" stroke-linecap="round" stroke-linejoin="round"/>
<g id="Group_12">
<path id="Vector_59" d="M85.5244 111.176C85.1943 110.114 84.7493 108.937 84.5052 107.796C84.1105 105.958 83.9239 104.078 83.687 102.212C83.5219 100.905 83.2348 95.5509 80.8232 97.0581C77.0048 99.4411 78.1532 112.971 78.1532 112.971C73.574 115.755 72.6194 122.316 72.6194 122.316" fill="white"/>
<path id="Vector_60" opacity="0.2" d="M85.5244 111.226C85.0866 110.243 84.7493 108.872 84.5052 107.731C84.1105 105.894 83.9239 104.013 83.687 102.147C83.5219 100.841 83.2348 95.4863 80.8232 96.9936C77.0048 99.3765 78.1532 112.906 78.1532 112.906C73.574 115.691 72.6194 122.251 72.6194 122.251" fill="black"/>
</g>
<path id="Vector_61" d="M85.6321 110.509C85.1943 109.525 84.7852 108.549 84.5411 107.408C84.1464 105.571 83.9597 103.69 83.7229 101.824C83.5578 100.518 83.2707 95.1633 80.8591 96.6706C77.0407 99.0535 78.1891 112.583 78.1891 112.583C73.6099 115.368 72.6553 121.928 72.6553 121.928" stroke="black" stroke-width="0.98" stroke-linecap="round" stroke-linejoin="round"/>
<path id="Vector_62" d="M121.964 173.254C120.134 166.579 101.358 153.071 95.2642 139.204C93.5703 135.357 92.6516 131.086 91.5176 127.038C90.118 122.05 88.4241 117.313 86.5149 112.518C86.235 111.815 85.9264 111.162 85.6321 110.509" stroke="black" stroke-width="0.98" stroke-linecap="round" stroke-linejoin="round"/>
<path id="Vector_63" opacity="0.1" d="M237.227 195.884C234.7 197.542 229.784 200.342 225.104 200.521C223.676 199.617 222.312 198.626 221.02 197.542C212.831 190.695 207.074 180.108 207.605 169.177C207.727 166.794 208.158 164.354 209.436 162.373C211.424 159.258 215.005 157.815 217.18 154.894C219.664 151.542 219.649 146.999 222.499 143.712C222.47 143.898 222.463 143.999 222.463 143.999C222.463 143.999 225.061 142.046 225.061 146.41C225.061 150.774 223.554 158.662 217.927 163.428C217.927 163.428 220.898 170.684 225.477 174.503C225.477 174.503 226.769 172.579 229.109 172.177C229.109 172.177 234.765 178.996 236.861 181.451C238.562 183.439 240.083 188.025 239.624 192.016C239.445 193.602 238.562 195.016 237.227 195.892V195.884Z" fill="black"/>
<path id="Vector_64" opacity="0.1" d="M112.993 161.871C112.993 161.368 122.833 150.911 125.395 139.915C125.395 139.915 125.151 150.796 125.008 152.59C125.008 152.59 124.986 152.978 124.986 153.107C125.194 159.007 125.79 160.04 125.79 160.04C125.79 160.04 122.108 168.538 122.108 171.704L112.993 161.871Z" fill="black"/>
</g>
</g>
<g id="Group_13">
<g id="Group_14">
<path id="Vector_65" d="M359.416 76.9398H314.686V81.3827H359.416V76.9398Z" fill="black"/>
<path id="Vector_66" d="M359.416 85.5312H314.686V89.974H359.416V85.5312Z" fill="black"/>
<path id="Vector_67" d="M359.416 94.1226H314.686V98.5655H359.416V94.1226Z" fill="black"/>
<g id="Group_15">
<path id="Vector_68" opacity="0.1" d="M296.878 68.5637H231.305C227.773 68.5637 224.91 71.4269 224.91 74.9588V111.198C224.91 114.73 227.773 117.593 231.305 117.593H296.878C300.41 117.593 303.274 114.73 303.274 111.198V74.9588C303.274 71.4269 300.41 68.5637 296.878 68.5637Z" fill="black"/>
<g id="Group_16">
<path id="Vector_69" d="M302.096 64.7884H236.523C232.991 64.7884 230.128 67.6516 230.128 71.1835V107.422C230.128 110.954 232.991 113.818 236.523 113.818H302.096C305.628 113.818 308.492 110.954 308.492 107.422V71.1835C308.492 67.6516 305.628 64.7884 302.096 64.7884Z" fill="#0021C5" stroke="black" stroke-miterlimit="10"/>
<path id="Vector_70" d="M269.346 106.116C278.506 106.116 285.933 98.6898 285.933 89.5291C285.933 80.3683 278.506 72.942 269.346 72.942C260.185 72.942 252.759 80.3683 252.759 89.5291C252.759 98.6898 260.185 106.116 269.346 106.116Z" fill="white"/>
<path id="Vector_71" d="M264.63 99.1109V80.7941L279.193 89.9525L264.63 99.1109Z" fill="black"/>
</g>
</g>
</g>
<g id="Group_17">
<path id="Vector_72" d="M359.416 141.853H314.686V146.295H359.416V141.853Z" fill="black"/>
<path id="Vector_73" d="M359.416 150.444H314.686V154.887H359.416V150.444Z" fill="black"/>
<path id="Vector_74" d="M359.416 159.035H314.686V163.478H359.416V159.035Z" fill="black"/>
<g id="Group_18">
<path id="Vector_75" opacity="0.1" d="M296.878 132.185H231.305C227.773 132.185 224.91 135.048 224.91 138.58V174.819C224.91 178.351 227.773 181.214 231.305 181.214H296.878C300.41 181.214 303.274 178.351 303.274 174.819V138.58C303.274 135.048 300.41 132.185 296.878 132.185Z" fill="black"/>
<g id="Group_19">
<path id="Vector_76" d="M302.096 128.689H236.523C232.991 128.689 230.128 131.552 230.128 135.084V171.323C230.128 174.855 232.991 177.718 236.523 177.718H302.096C305.628 177.718 308.492 174.855 308.492 171.323V135.084C308.492 131.552 305.628 128.689 302.096 128.689Z" fill="#0021C5" stroke="black" stroke-miterlimit="10"/>
<path id="Vector_77" d="M275.603 168.951C284.086 165.494 288.161 155.814 284.704 147.331C281.247 138.847 271.568 134.772 263.084 138.229C254.601 141.686 250.526 151.365 253.983 159.849C257.44 168.333 267.119 172.407 275.603 168.951Z" fill="white"/>
<path id="Vector_78" d="M264.63 163.177V144.86L279.193 154.018L264.63 163.177Z" fill="black"/>
</g>
</g>
</g>
<g id="Group_20">
<path id="Vector_79" d="M359.416 205.265H314.686V209.708H359.416V205.265Z" fill="black"/>
<path id="Vector_80" d="M359.416 213.857H314.686V218.3H359.416V213.857Z" fill="black"/>
<path id="Vector_81" d="M359.416 222.448H314.686V226.891H359.416V222.448Z" fill="black"/>
<g id="Group_21">
<path id="Vector_82" opacity="0.1" d="M296.878 195.439H231.305C227.773 195.439 224.91 198.303 224.91 201.835V238.073C224.91 241.605 227.773 244.469 231.305 244.469H296.878C300.41 244.469 303.274 241.605 303.274 238.073V201.835C303.274 198.303 300.41 195.439 296.878 195.439Z" fill="black"/>
<g id="Group_22">
<path id="Vector_83" d="M302.096 192.59H236.523C232.991 192.59 230.128 195.453 230.128 198.985V235.224C230.128 238.756 232.991 241.619 236.523 241.619H302.096C305.628 241.619 308.492 238.756 308.492 235.224V198.985C308.492 195.453 305.628 192.59 302.096 192.59Z" fill="#0021C5" stroke="black" stroke-miterlimit="10"/>
<path id="Vector_84" d="M275.643 233.014C284.116 229.533 288.164 219.842 284.684 211.369C281.203 202.895 271.512 198.847 263.038 202.327C254.564 205.808 250.517 215.499 253.997 223.973C257.478 232.447 267.169 236.494 275.643 233.014Z" fill="white"/>
<path id="Vector_85" d="M264.63 227.236V208.919L279.193 218.077L264.63 227.236Z" fill="black"/>
</g>
</g>
</g>
</g>
</g>
</svg>
